<?xml version="1.0" encoding="UTF-8" standalone="no"?>
<!-- Generator: Adobe Illustrator 15.1.0, SVG Export Plug-In . SVG Version: 6.00 Build 0)  -->

<svg
   version="1.1"
   id="Ebene_1"
   x="0px"
   y="0px"
   width="533.59088"
   height="497.35208"
   viewBox="0 0 533.59091 497.35208"
   enable-background="new 0 0 1226.044 792"
   xml:space="preserve"
   xmlns="http://www.w3.org/2000/svg"
   xmlns:svg="http://www.w3.org/2000/svg"><defs
   id="defs38" />
<g
   id="g5"
   transform="translate(-7.2383986,-86.928965)">
	<path
   fill-rule="evenodd"
   clip-rule="evenodd"
   fill="#302a5f"
   d="m 41.818,359.573 c 10.587,23.438 22.56,46.493 36.118,67.755 20.205,31.679 36.476,56.925 48.662,74.843 12.185,17.919 20.285,28.517 24.149,30.894 14.25,8.777 1.731,-18.924 -17.051,-55.806 C 114.912,440.376 89.711,394.331 79.047,366.36 56.265,306.603 5.145,134.158 154.227,133.43 c 15.859,-0.076 30.772,3.087 45.169,8.226 32.802,11.713 59.527,32.076 84.208,50.465 4.712,3.512 2.616,-9.816 0.915,-16.993 -0.199,-0.841 -1.882,-7.761 -2.137,-8.617 C 262.466,99.725 126.105,55.338 60.008,114.788 c -21.068,18.95 -38.875,45.135 -47.582,76.909 -14.994,54.714 4.886,113.62 29.392,167.876 z"
   id="path1" />
	<path
   fill-rule="evenodd"
   clip-rule="evenodd"
   fill="#4f5ba4"
   d="m 204.21,449.047 c -24.699,-38.703 -50.558,-78.642 -67.446,-118.957 -25.949,-61.933 -19.561,-141.361 78.48,-105.74 32.074,11.653 36.121,32.995 33.946,10.405 -0.511,-5.292 -3.805,-12.34 -11.459,-19.317 -10.944,-9.976 -22.271,-19.45 -50.518,-24.852 -39.352,-7.524 -70.538,12.173 -83.961,38.892 -28.715,57.15 3.209,95.666 10.124,109.418 6.109,16.17 90.038,132.339 90.834,110.151 z"
   id="path2" />
	<path
   fill-rule="evenodd"
   clip-rule="evenodd"
   fill="#302a5f"
   d="m 162.572,543.787 c -10.177,-4.252 21.478,54.563 82.171,37.319 53.453,-26.286 15.381,-83.354 15.999,-68.037 3.22,25.271 -24.405,69.832 -98.17,30.718 z"
   id="path3" />
	<path
   fill-rule="evenodd"
   clip-rule="evenodd"
   fill="#7ecde9"
   d="m 204.533,306.619 c 15.865,-1.38 29.631,7.872 30.745,20.666 1.114,12.795 -10.845,24.289 -26.712,25.671 -15.864,1.379 -29.628,-7.873 -30.744,-20.667 -1.114,-12.796 10.843,-24.288 26.711,-25.67 z"
   id="path4" />
	<path
   fill-rule="evenodd"
   clip-rule="evenodd"
   fill="#7ecde9"
   d="m 179.816,325.143 c -3.075,0.039 -2.611,16.205 3.266,26.795 6.694,12.064 11.591,20.135 23.006,26.063 36.213,18.801 5.666,-10.852 0.103,-17.017 -4.321,-5.461 -6.619,-11.512 -8,-17.833 z"
   id="path5" />
</g>

<g
   id="g11"
   transform="translate(-7.2383986,-86.928965)">
	<g
   id="g9">
		<path
   fill="#7ecde9"
   d="m 410.276,290.496 -0.381,0.345 c -0.834,0.755 -85.465,76.533 -95.441,81.531 l -21.424,2.909 11.552,93.263 c 0,0 18.311,-0.041 18.959,-0.057 0.006,0.006 0.026,0.018 0.026,0.018 13.811,9.1 30.452,14.58 50.872,16.76 2.527,0.271 40.489,3.412 106.901,8.848 0,0 3.148,0.256 3.157,0.254 v 0 c 6.735,0.914 14.631,-3.02 15.642,-10.338 0.948,-7.012 -3.982,-13.508 -11.014,-14.482 l -1.096,-0.133 c -34.924,-4.258 -56.623,-6.998 -59.529,-7.521 -2.544,-0.471 -3.315,-2.373 -3.196,-3.861 0.147,-1.818 1.656,-3.684 4.254,-3.73 3.423,-0.072 42.771,0.98 78.453,1.988 0,0 0.498,0.012 0.5,0.012 7.08,0.191 13.002,-5.406 13.207,-12.475 0.094,-3.434 -1.156,-6.699 -3.523,-9.201 -2.358,-2.486 -5.541,-3.904 -8.951,-3.984 -0.647,-0.025 -75.127,-2.135 -80.174,-2.041 -2.929,0.063 -3.76,-2.283 -3.791,-3.672 -0.041,-1.986 1.211,-4.021 3.674,-4.07 4.653,-0.088 92.057,-4.951 92.91,-5.002 3.431,-0.184 6.577,-1.691 8.862,-4.242 2.29,-2.555 3.447,-5.855 3.257,-9.291 -0.386,-7.068 -6.45,-12.51 -13.525,-12.131 l -4.063,0.229 c -69.104,3.852 -85.952,4.707 -87.918,4.748 -2.552,0.051 -3.754,-1.904 -3.794,-3.742 -0.025,-1.137 0.368,-2.215 1.075,-2.951 0.653,-0.682 1.524,-1.039 2.588,-1.061 4.781,-0.1 78.874,-10.979 79.6,-11.088 7.047,-0.883 12.069,-7.327 11.198,-14.365 -0.913,-7.037 -7.362,-12.042 -14.375,-11.155 -12.015,1.4 -97.631,11.264 -102.623,11.368 -2.766,0.056 -5.198,-1.417 -6.509,-3.942 -0.498,-0.95 -0.815,-2.002 -0.942,-3.124 -0.288,-2.54 0.451,-5.233 2.038,-7.388 0.735,-1.003 7.569,-9.742 19.241,-24.608 0,0 0.451,-0.576 0.469,-0.598 3.749,-5.08 5.859,-13.115 5.129,-19.542 -0.205,-1.823 -0.632,-3.513 -1.271,-5.027 -1.738,-4.115 -4.941,-6.593 -9.52,-7.364 z"
   id="path8" />
	</g>
	<g
   id="g10">
		<path
   fill="#4f5ba4"
   d="m 357.762,182.2 -0.498,0.342 -0.124,0.492 c -10.522,41.259 -29.513,113.147 -33.823,120.775 l -28.277,23.981 4.36,38.413 12.581,-1.419 0.17,-0.086 c 7.322,-3.707 89.451,-76.942 92.948,-80.062 1.692,-1.528 3.959,-2.232 6.217,-1.929 7.538,1.017 13.288,5.346 16.187,12.188 0.918,2.166 1.531,4.57 1.823,7.147 1.1,9.689 -2.526,19.608 -6.752,25.324 -6.316,8.04 -18.528,23.617 -19.527,24.973 l -1.492,2.081 2.343,-0.21 c 6.548,-0.588 29.193,-3.077 62.134,-6.828 l 0.213,-0.024 0.185,-0.104 c 0,0 66.117,-36.898 66.071,-36.871 6.101,-2.998 10.465,-10.668 7.231,-17.31 -3.108,-6.357 -10.814,-8.994 -17.212,-5.884 l -0.29,0.147 c -8.329,4.229 -50.094,25.427 -54.328,27.271 -2.372,1.031 -4.067,-0.124 -4.799,-1.424 -0.892,-1.592 -0.682,-3.984 1.447,-5.473 3.739,-2.619 60.374,-38.351 66.684,-42.325 5.99,-3.769 7.797,-11.72 4.021,-17.72 -1.83,-2.895 -4.681,-4.904 -8.033,-5.659 -3.348,-0.756 -6.785,-0.165 -9.679,1.664 -0.627,0.394 -63.652,40.137 -67.694,42.967 -0.906,0.635 -1.829,0.873 -2.742,0.713 -0.951,-0.169 -1.846,-0.773 -2.469,-1.66 -1.105,-1.58 -1.21,-4.013 0.785,-5.413 3.847,-2.7 73.698,-55.401 74.372,-55.912 2.744,-2.062 4.518,-5.065 5.001,-8.46 0.477,-3.403 -0.398,-6.788 -2.465,-9.537 -4.273,-5.655 -12.343,-6.791 -17.989,-2.532 -0.686,0.518 -69.55,52.513 -73.623,55.365 -1.133,0.797 -2.444,0.946 -3.597,0.411 -1.294,-0.603 -2.286,-2.033 -2.416,-3.482 -0.118,-1.318 0.447,-2.486 1.587,-3.29 3.412,-2.398 46.436,-41.327 59.539,-53.202 0,0 0.398,-0.361 0.384,-0.347 2.607,-2.264 4.175,-5.399 4.413,-8.823 0.247,-3.434 -0.859,-6.753 -3.116,-9.348 -4.67,-5.35 -12.82,-5.907 -18.155,-1.249 l -0.741,0.634 c -17.351,14.784 -74.253,63.234 -78.144,65.964 -2.257,1.585 -5.096,1.723 -7.589,0.367 -3.175,-1.732 -5.12,-5.399 -4.962,-9.344 0.09,-2.1 2.225,-30.545 2.332,-31.936 0.325,-7.326 -3.595,-18.024 -10.489,-22.532 -3.749,-2.45 -7.785,-2.728 -12.003,-0.824 z"
   id="path9" />
	</g>
</g>

</svg>
