<svg width="728.31px" height="117.93px" enable-background="new 0 0 728.313 117.932" version="1.1" viewBox="0 0 728.31 117.93" xml:space="preserve" xmlns="http://www.w3.org/2000/svg" xmlns:xlink="http://www.w3.org/1999/xlink">
<linearGradient id="SVGID_1_" x1="-17.613" x2="750.93" y1="63.767" y2="63.767" gradientUnits="userSpaceOnUse">
	<stop stop-color="#B81C1B" offset="0"/>
	<stop stop-color="#C2311A" offset=".129"/>
	<stop stop-color="#D55215" offset=".3823"/>
	<stop stop-color="#E46B0C" offset=".6197"/>
	<stop stop-color="#ED7A01" offset=".8325"/>
	<stop stop-color="#F07F00" offset="1"/>
</linearGradient>
<rect x="-17.613" y="-20.128" width="768.54" height="167.79" fill="url(#SVGID_1_)"/>

	
		<defs>
			<rect id="SVGID_2_" x="3.026" y="-146.18" width="371.03" height="524.75"/>
		</defs>
		<clipPath id="SVGID_3_">
			<use overflow="visible" xlink:href="#SVGID_2_"/>
		</clipPath><g clip-rule="evenodd" fill="#3A2E87" fill-rule="evenodd">
		
			<rect transform="matrix(.7374 -.6755 .6755 .7374 -30.946 73.045)" x="74.548" y="72.144" width="7.824" height="8.346" clip-path="url(#SVGID_3_)"/>
		<polygon points="278.46 -9.151 272.7 -3.864 267.06 -10.016 272.83 -15.303" clip-path="url(#SVGID_3_)"/>
		
			<rect transform="matrix(.7373 -.6756 .6756 .7373 6.7789 82.081)" x="105.01" y="28.151" width="7.827" height="8.348" clip-path="url(#SVGID_3_)"/>
		
			<rect transform="matrix(.737 -.6759 .6759 .737 -18.409 60.152)" x="64.177" y="49.557" width="7.824" height="8.347" clip-path="url(#SVGID_3_)"/>
		
			<rect transform="matrix(.7373 -.6756 .6756 .7373 -10.929 84.758)" x="99.606" y="52.259" width="7.823" height="8.345" clip-path="url(#SVGID_3_)"/>
		
			<rect transform="matrix(.7372 -.6756 .6756 .7372 -56.55 144.16)" x="153.14" y="140.61" width="7.825" height="8.348" clip-path="url(#SVGID_3_)"/>
		
			<rect transform="matrix(.7373 -.6756 .6756 .7373 -32.981 94.721)" x="101.39" y="85.595" width="7.822" height="8.346" clip-path="url(#SVGID_3_)"/>
		<polygon points="93.556 93.265 87.786 98.55 82.146 92.395 87.917 87.113" clip-path="url(#SVGID_3_)"/>
		<path d="m235.64 11.082c-7.21-15.346-19.215-27.973-34.796-32.414-16.069-4.865-29.387-0.304-41.621 10.075-6.717 7.724-10.43 18.887-9.471 28.786 2.464 15.833 9.938 24.468 18.708 27.345 4.319 1.553 7.2 0.825 10.795-1.439 7.216-6.215-0.967-16.072-2.876-17.99-11.115-14.23 3.676-31.416 19.608-24.407 22.553 8.908 28.51 34.513 16.117 58.731-6.515 12.734-18.334 21.295-33.906 23.265-11.365 1.438-24.822 0.135-39.24-9.374l-14.392 15.831c22.293 16.244 51.222 18.104 73.29 9.971 22.917-8.446 38.006-25.956 41.422-48.415 1.818-11.981 2.809-25.394-3.638-39.965zm-22.954 69.53-5.638-6.151 5.77-5.286 5.636 6.153-5.768 5.284z" clip-path="url(#SVGID_3_)"/>
		<path d="m255.48-17.188c-13.816-22.687-35.164-33.725-62.062-36.792-27.396-0.565-51.481 11.493-64.884 31.509-12.514 18.692-17.245 43.307-4.037 68.074 12.368 25.463 38.17 33.654 64.293 25.163 15.452-8.914 22.132-21.48 20.58-36.933-1.609-9.196-5.656-22.791-17.332-25.921-5.41-1.739-13.01-0.964-13.774 6.336-0.597 3.342 1.803 5.943 3.788 8.671 3.064 4.21 4.093 8.237 5.122 11.319 0.327 6.738-2.949 13.017-6.548 15.375-13.427 8.748-30.184-5.257-34.048-15.292-9.94-18.54-6.029-37.204 4.593-49.273 14.557-16.538 41.713-21.99 63.101-9.594 17.746 12.918 25.59 24.04 28.939 34.339 6.796 15.455 7.286 30.009 4.911 44.153-7.996 29.324-27.878 49.695-57.883 56.903-21.526 5.506-45.849 2.766-72.606-12.751l-13.245 15.206c16.025 13.246 35.32 20.603 57.887 22.075 13.158-4e-3 35.043-1.678 48.973-7.885 33.256-14.874 59.753-45.085 60.914-83.359 0.618-20.513-2.572-40.883-16.682-61.323zm-125.7 55.123-5.64-6.154 5.77-5.286 5.638 6.152-5.768 5.288zm70.525 8.937-5.772 5.289-5.639-6.153 5.77-5.289 5.641 6.153zm-13.862-22.451 5.766-5.285 5.639 6.153-5.766 5.286-5.639-6.154zm-11.53-62.034-5.641-6.153 5.769-5.288 5.639 6.153-5.767 5.288zm62.297 21.586-5.636-6.154 5.766-5.287 5.641 6.155-5.771 5.286zm-65.732 147.66-5.64-6.152 5.768-5.288 5.641 6.154-5.769 5.286zm72.803-137.09 5.772-5.287 5.637 6.153-5.77 5.288-5.639-6.154zm11.062 22.32-5.642-6.153 5.768-5.287 5.64 6.153-5.766 5.287z" clip-path="url(#SVGID_3_)"/>
	</g>

<path d="M-80.543-65.903v277.488h893.578V-65.903H-80.543z M728.313,117.932H0V0h728.313V117.932z" fill="#fff"/>
<g display="none">
	<rect x="383.26" y="33.695" width="278.98" height="66.398" display="inline" fill="none"/><g fill="#fff">
	<path d="m385.09 34.876c1.004-0.206 2.834-0.386 4.639-0.386 2.318 0 3.787 0.309 4.947 1.108 1.082 0.645 1.805 1.778 1.805 3.273 0 1.598-1.006 3.042-2.887 3.737v0.077c1.83 0.464 3.506 1.907 3.506 4.278 0 1.546-0.67 2.757-1.65 3.608-1.236 1.057-3.273 1.598-6.469 1.598-1.752 0-3.066-0.128-3.891-0.232v-17.061zm3.143 6.855h1.625c2.217 0 3.428-1.031 3.428-2.5 0-1.649-1.238-2.396-3.248-2.396-0.928 0-1.469 0.051-1.805 0.129v4.767zm0 7.964c0.414 0.078 0.955 0.078 1.676 0.078 2.037 0 3.865-0.748 3.865-2.887 0-2.036-1.777-2.86-3.969-2.86h-1.572v5.669z" display="inline"/>
	<path d="m409.62 48.974c0 1.134 0.051 2.242 0.207 3.015h-2.861l-0.232-1.392h-0.076c-0.748 0.979-2.062 1.675-3.713 1.675-2.525 0-3.943-1.83-3.943-3.737 0-3.144 2.811-4.768 7.449-4.742v-0.207c0-0.825-0.336-2.19-2.551-2.19-1.238 0-2.527 0.387-3.377 0.928l-0.619-2.062c0.928-0.567 2.553-1.108 4.537-1.108 4.02 0 5.18 2.551 5.18 5.309v4.511zm-3.092-3.119c-2.242-0.026-4.383 0.438-4.383 2.345 0 1.237 0.799 1.804 1.805 1.804 1.289 0 2.191-0.825 2.5-1.727 0.078-0.232 0.078-0.464 0.078-0.696v-1.726z" display="inline"/>
	<path d="m414.72 39.438 2.242 6.726c0.258 0.773 0.541 1.727 0.723 2.423h0.076c0.182-0.696 0.414-1.649 0.67-2.448l1.959-6.701h3.377l-3.145 8.556c-1.727 4.69-2.887 6.778-4.355 8.066-1.262 1.083-2.551 1.495-3.324 1.598l-0.723-2.655c0.543-0.128 1.186-0.412 1.83-0.876 0.619-0.387 1.314-1.134 1.754-1.984 0.129-0.232 0.18-0.413 0.18-0.567 0-0.129-0.025-0.31-0.154-0.619l-4.613-11.52h3.503z" display="inline"/>
	<path d="m427.5 46.603c0.076 2.268 1.828 3.247 3.865 3.247 1.469 0 2.5-0.232 3.479-0.567l0.465 2.165c-1.082 0.464-2.578 0.799-4.381 0.799-4.072 0-6.469-2.5-6.469-6.34 0-3.479 2.113-6.752 6.133-6.752 4.072 0 5.412 3.35 5.412 6.108 0 0.593-0.051 1.057-0.104 1.34h-8.4zm5.514-2.217c0.027-1.16-0.488-3.067-2.602-3.067-1.959 0-2.783 1.778-2.912 3.067h5.514z" display="inline"/>
	<path d="m438.56 43.484c0-1.701-0.027-2.938-0.104-4.046h2.732l0.129 2.371h0.076c0.619-1.752 2.088-2.654 3.453-2.654 0.311 0 0.49 0.026 0.748 0.077v2.964c-0.283-0.051-0.566-0.077-0.953-0.077-1.496 0-2.553 0.954-2.836 2.396-0.051 0.284-0.076 0.619-0.076 0.954v6.521h-3.17v-8.506z" display="inline"/>
	<path d="m451.1 35.933c0 0.928-0.697 1.701-1.805 1.701-1.057 0-1.752-0.773-1.752-1.701 0-0.979 0.721-1.727 1.777-1.727 1.083 0 1.755 0.748 1.78 1.727zm-3.377 16.056v-12.551h3.17v12.551h-3.17z" display="inline"/>
	<path d="m454.2 49.051c0.695 0.438 2.061 0.928 3.195 0.928 1.391 0 2.01-0.593 2.01-1.417 0-0.851-0.516-1.263-2.062-1.83-2.447-0.825-3.453-2.165-3.453-3.66 0-2.217 1.83-3.917 4.742-3.917 1.393 0 2.604 0.335 3.352 0.748l-0.645 2.216c-0.516-0.31-1.547-0.722-2.654-0.722-1.135 0-1.754 0.567-1.754 1.34 0 0.799 0.594 1.16 2.191 1.752 2.293 0.799 3.324 1.958 3.35 3.814 0 2.294-1.777 3.943-5.102 3.943-1.521 0-2.887-0.361-3.814-0.876l0.644-2.319z" display="inline"/>
	<path d="m474.3 51.602c-0.672 0.31-1.984 0.645-3.557 0.645-3.918 0-6.469-2.526-6.469-6.417 0-3.763 2.576-6.675 6.984-6.675 1.158 0 2.344 0.258 3.066 0.567l-0.568 2.397c-0.514-0.258-1.262-0.49-2.396-0.49-2.422 0-3.865 1.778-3.84 4.072 0 2.578 1.676 4.046 3.84 4.046 1.082 0 1.883-0.232 2.5-0.49l0.44 2.345z" display="inline"/>
	<path d="m476.64 33.69h3.17v7.448h0.053c0.385-0.593 0.928-1.083 1.57-1.417 0.645-0.361 1.393-0.567 2.191-0.567 2.139 0 4.381 1.417 4.381 5.438v7.396h-3.17v-7.062c0-1.804-0.67-3.196-2.422-3.196-1.236 0-2.113 0.825-2.475 1.778-0.104 0.284-0.129 0.619-0.129 0.954v7.525h-3.17v-18.297z" display="inline"/>
	<path d="m493.62 46.603c0.078 2.268 1.83 3.247 3.865 3.247 1.471 0 2.5-0.232 3.48-0.567l0.463 2.165c-1.082 0.464-2.576 0.799-4.381 0.799-4.072 0-6.469-2.5-6.469-6.34 0-3.479 2.113-6.752 6.135-6.752 4.07 0 5.412 3.35 5.412 6.108 0 0.593-0.053 1.057-0.104 1.34h-8.401zm5.515-2.217c0.025-1.16-0.49-3.067-2.604-3.067-1.959 0-2.783 1.778-2.912 3.067h5.516z" display="inline"/>
	<path d="m504.67 43.484c0-1.701-0.025-2.938-0.104-4.046h2.732l0.129 2.371h0.078c0.617-1.752 2.086-2.654 3.453-2.654 0.309 0 0.49 0.026 0.746 0.077v2.964c-0.283-0.051-0.566-0.077-0.953-0.077-1.494 0-2.551 0.954-2.834 2.396-0.053 0.284-0.078 0.619-0.078 0.954v6.521h-3.17v-8.506z" display="inline"/>
	<path d="m531.75 51.499c-0.746 0.361-2.396 0.773-4.51 0.773-5.516 0-8.865-3.454-8.865-8.763 0-5.721 3.994-9.175 9.305-9.175 2.086 0 3.557 0.438 4.199 0.773l-0.67 2.526c-0.824-0.361-1.984-0.67-3.4-0.67-3.531 0-6.084 2.216-6.084 6.391 0 3.84 2.217 6.263 6.057 6.263 1.264 0 2.604-0.258 3.455-0.619l0.513 2.501z" display="inline"/>
	<path d="m545.85 45.597c0 4.613-3.248 6.675-6.443 6.675-3.531 0-6.289-2.423-6.289-6.469 0-4.123 2.707-6.649 6.494-6.649 3.738 0 6.238 2.629 6.238 6.443zm-9.459 0.129c0 2.423 1.211 4.252 3.119 4.252 1.803 0 3.066-1.752 3.066-4.304 0-1.959-0.877-4.227-3.041-4.227-2.242 1e-3 -3.144 2.192-3.144 4.279z" display="inline"/>
	<path d="m557.68 51.602c-0.672 0.31-1.984 0.645-3.557 0.645-3.918 0-6.469-2.526-6.469-6.417 0-3.763 2.576-6.675 6.984-6.675 1.158 0 2.344 0.258 3.066 0.567l-0.568 2.397c-0.514-0.258-1.262-0.49-2.396-0.49-2.422 0-3.865 1.778-3.84 4.072 0 2.578 1.676 4.046 3.84 4.046 1.082 0 1.883-0.232 2.5-0.49l0.44 2.345z" display="inline"/>
	<path d="m560.02 33.69h3.17v7.448h0.053c0.385-0.593 0.928-1.083 1.57-1.417 0.645-0.361 1.393-0.567 2.191-0.567 2.139 0 4.381 1.417 4.381 5.438v7.396h-3.17v-7.062c0-1.804-0.67-3.196-2.422-3.196-1.236 0-2.113 0.825-2.475 1.778-0.104 0.284-0.129 0.619-0.129 0.954v7.525h-3.17v-18.297z" display="inline"/>
	<path d="M574.755,33.69h3.17v18.298h-3.17V33.69z" display="inline"/>
	<path d="m583.62 46.603c0.076 2.268 1.828 3.247 3.865 3.247 1.469 0 2.5-0.232 3.479-0.567l0.465 2.165c-1.082 0.464-2.578 0.799-4.381 0.799-4.072 0-6.469-2.5-6.469-6.34 0-3.479 2.113-6.752 6.133-6.752 4.072 0 5.412 3.35 5.412 6.108 0 0.593-0.051 1.057-0.104 1.34h-8.4zm5.513-2.217c0.027-1.16-0.488-3.067-2.602-3.067-1.959 0-2.783 1.778-2.912 3.067h5.514z" display="inline"/>
	<path d="m604.41 48.974c0 1.134 0.053 2.242 0.207 3.015h-2.861l-0.23-1.392h-0.078c-0.748 0.979-2.062 1.675-3.711 1.675-2.525 0-3.943-1.83-3.943-3.737 0-3.144 2.809-4.768 7.447-4.742v-0.207c0-0.825-0.334-2.19-2.551-2.19-1.236 0-2.525 0.387-3.375 0.928l-0.619-2.062c0.928-0.567 2.551-1.108 4.535-1.108 4.021 0 5.18 2.551 5.18 5.309v4.511zm-3.092-3.119c-2.242-0.026-4.381 0.438-4.381 2.345 0 1.237 0.799 1.804 1.803 1.804 1.289 0 2.191-0.825 2.5-1.727 0.078-0.232 0.078-0.464 0.078-0.696v-1.726z" display="inline"/>
	<path d="m388.26 62.367v17.371h-3.17v-17.371h3.17z" display="inline"/>
	<path d="m391.76 70.924c0-1.443-0.051-2.655-0.104-3.737h2.707l0.154 1.855h0.078c0.592-0.979 1.727-2.139 3.865-2.139 1.648 0 2.938 0.928 3.479 2.319h0.053c0.438-0.696 0.953-1.211 1.52-1.572 0.723-0.49 1.521-0.748 2.578-0.748 2.061 0 4.174 1.417 4.174 5.438v7.396h-3.092v-6.933c0-2.087-0.723-3.325-2.242-3.325-1.082 0-1.881 0.773-2.217 1.675-0.104 0.283-0.154 0.696-0.154 1.057v7.525h-3.092v-7.265c0-1.752-0.697-2.99-2.166-2.99-1.186 0-1.984 0.928-2.293 1.778-0.104 0.335-0.154 0.696-0.154 1.057v7.422h-3.094v-8.813z" display="inline"/>
	<path d="m413.61 71.362c0-1.649-0.051-2.99-0.104-4.175h2.783l0.156 1.933h0.051c0.928-1.417 2.396-2.216 4.305-2.216 2.887 0 5.283 2.474 5.283 6.392 0 4.536-2.861 6.727-5.723 6.727-1.572 0-2.887-0.67-3.529-1.675h-0.053v6.495h-3.17v-13.481zm3.17 3.118c0 0.309 0.025 0.593 0.078 0.876 0.334 1.289 1.443 2.216 2.809 2.216 2.01 0 3.195-1.675 3.195-4.149 0-2.217-1.082-4.021-3.117-4.021-1.314 0-2.527 0.954-2.861 2.345-0.051 0.258-0.104 0.541-0.104 0.799v1.934z" display="inline"/>
	<path d="m428.68 61.439h3.17v18.298h-3.17v-18.298z" display="inline"/>
	<path d="m445.05 76.723c0 1.134 0.051 2.242 0.207 3.015h-2.861l-0.232-1.392h-0.076c-0.748 0.979-2.062 1.675-3.713 1.675-2.525 0-3.943-1.83-3.943-3.737 0-3.144 2.811-4.768 7.449-4.742v-0.207c0-0.825-0.336-2.19-2.551-2.19-1.238 0-2.527 0.387-3.377 0.928l-0.619-2.062c0.928-0.567 2.553-1.108 4.537-1.108 4.02 0 5.18 2.551 5.18 5.309v4.511zm-3.091-3.119c-2.242-0.026-4.383 0.438-4.383 2.345 0 1.237 0.799 1.804 1.805 1.804 1.289 0 2.191-0.825 2.5-1.727 0.078-0.232 0.078-0.464 0.078-0.696v-1.726z" display="inline"/>
	<path d="m448.4 70.924c0-1.443-0.051-2.655-0.104-3.737h2.758l0.154 1.881h0.078c0.566-0.979 1.934-2.165 4.02-2.165 2.191 0 4.459 1.417 4.459 5.386v7.448h-3.17v-7.087c0-1.804-0.67-3.17-2.396-3.17-1.262 0-2.139 0.902-2.475 1.855-0.102 0.258-0.154 0.645-0.154 1.005v7.396h-3.17v-8.812z" display="inline"/>
	<path d="m466.77 63.965v3.222h3.016v2.371h-3.016v5.541c0 1.546 0.412 2.32 1.623 2.32 0.566 0 0.877-0.026 1.236-0.129l0.053 2.396c-0.465 0.181-1.314 0.335-2.295 0.335-1.186 0-2.139-0.387-2.73-1.031-0.697-0.722-1.006-1.881-1.006-3.531v-5.902h-1.777v-2.371h1.777v-2.346l3.119-0.875z" display="inline"/>
	<path d="m481.92 76.723c0 1.134 0.053 2.242 0.207 3.015h-2.861l-0.23-1.392h-0.078c-0.748 0.979-2.062 1.675-3.711 1.675-2.525 0-3.943-1.83-3.943-3.737 0-3.144 2.809-4.768 7.447-4.742v-0.207c0-0.825-0.334-2.19-2.551-2.19-1.236 0-2.525 0.387-3.375 0.928l-0.619-2.062c0.928-0.567 2.551-1.108 4.535-1.108 4.021 0 5.18 2.551 5.18 5.309v4.511zm-3.091-3.119c-2.242-0.026-4.381 0.438-4.381 2.345 0 1.237 0.799 1.804 1.803 1.804 1.289 0 2.191-0.825 2.5-1.727 0.078-0.232 0.078-0.464 0.078-0.696v-1.726z" display="inline"/>
	<path d="m488.9 63.965v3.222h3.016v2.371h-3.016v5.541c0 1.546 0.412 2.32 1.623 2.32 0.568 0 0.877-0.026 1.238-0.129l0.051 2.396c-0.463 0.181-1.314 0.335-2.293 0.335-1.186 0-2.139-0.387-2.732-1.031-0.695-0.722-1.004-1.881-1.004-3.531v-5.902h-1.779v-2.371h1.779v-2.346l3.117-0.875z" display="inline"/>
	<path d="m503.74 79.738-5.619-17.371h3.453l2.371 7.912c0.67 2.191 1.264 4.201 1.701 6.314h0.053c0.463-2.062 1.107-4.175 1.777-6.289l2.525-7.938h3.377l-6.006 17.371h-3.632z" display="inline"/>
	<path d="m517.37 74.352c0.078 2.268 1.83 3.247 3.865 3.247 1.471 0 2.5-0.232 3.48-0.567l0.463 2.165c-1.082 0.464-2.576 0.799-4.381 0.799-4.072 0-6.469-2.5-6.469-6.34 0-3.479 2.113-6.752 6.135-6.752 4.07 0 5.412 3.35 5.412 6.108 0 0.593-0.053 1.057-0.104 1.34h-8.401zm5.515-2.217c0.025-1.16-0.49-3.067-2.604-3.067-1.959 0-2.783 1.778-2.912 3.067h5.516z" display="inline"/>
	<path d="m528.42 71.233c0-1.701-0.025-2.938-0.104-4.046h2.732l0.129 2.371h0.078c0.617-1.752 2.086-2.654 3.453-2.654 0.309 0 0.49 0.026 0.746 0.077v2.964c-0.283-0.051-0.566-0.077-0.953-0.077-1.494 0-2.551 0.954-2.834 2.396-0.053 0.284-0.078 0.619-0.078 0.954v6.521h-3.17v-8.506z" display="inline"/>
	<path d="m537.6 61.439h3.17v7.474h0.051c0.773-1.211 2.139-2.01 4.021-2.01 3.066 0 5.256 2.551 5.23 6.366 0 4.51-2.861 6.752-5.695 6.752-1.623 0-3.066-0.619-3.969-2.165h-0.051l-0.156 1.881h-2.705c0.051-0.851 0.104-2.242 0.104-3.531v-14.767zm3.17 13.119c0 0.258 0.025 0.516 0.076 0.748 0.336 1.289 1.443 2.216 2.811 2.216 1.984 0 3.195-1.572 3.195-4.124 0-2.216-1.057-4.021-3.17-4.021-1.289 0-2.475 0.928-2.811 2.319-0.051 0.232-0.102 0.516-0.102 0.825v2.037z" display="inline"/>
	<path d="m562.41 76.723c0 1.134 0.051 2.242 0.207 3.015h-2.861l-0.232-1.392h-0.076c-0.748 0.979-2.062 1.675-3.713 1.675-2.525 0-3.943-1.83-3.943-3.737 0-3.144 2.811-4.768 7.449-4.742v-0.207c0-0.825-0.336-2.19-2.551-2.19-1.238 0-2.527 0.387-3.377 0.928l-0.619-2.062c0.928-0.567 2.553-1.108 4.537-1.108 4.02 0 5.18 2.551 5.18 5.309v4.511zm-3.092-3.119c-2.242-0.026-4.383 0.438-4.383 2.345 0 1.237 0.799 1.804 1.805 1.804 1.289 0 2.191-0.825 2.5-1.727 0.078-0.232 0.078-0.464 0.078-0.696v-1.726z" display="inline"/>
	<path d="m565.76 70.924c0-1.443-0.051-2.655-0.104-3.737h2.758l0.154 1.881h0.078c0.566-0.979 1.934-2.165 4.02-2.165 2.191 0 4.459 1.417 4.459 5.386v7.448h-3.17v-7.087c0-1.804-0.67-3.17-2.396-3.17-1.262 0-2.139 0.902-2.475 1.855-0.102 0.258-0.154 0.645-0.154 1.005v7.396h-3.17v-8.812z" display="inline"/>
	<path d="m592.07 61.439v14.768c0 1.289 0.051 2.68 0.104 3.531h-2.811l-0.154-1.984h-0.051c-0.748 1.392-2.268 2.268-4.072 2.268-3.016 0-5.387-2.552-5.387-6.417-0.025-4.201 2.604-6.701 5.619-6.701 1.727 0 2.963 0.696 3.529 1.624h0.053v-7.087h3.17zm-3.17 10.979c0-0.258-0.025-0.593-0.078-0.851-0.283-1.211-1.289-2.216-2.73-2.216-2.037 0-3.172 1.804-3.172 4.124s1.135 3.995 3.145 3.995c1.289 0 2.424-0.876 2.732-2.242 0.078-0.283 0.104-0.593 0.104-0.928v-1.882z" display="inline"/>
	<path d="m603.05 74.352c0.076 2.268 1.828 3.247 3.865 3.247 1.469 0 2.5-0.232 3.479-0.567l0.465 2.165c-1.082 0.464-2.578 0.799-4.381 0.799-4.072 0-6.469-2.5-6.469-6.34 0-3.479 2.113-6.752 6.133-6.752 4.072 0 5.412 3.35 5.412 6.108 0 0.593-0.051 1.057-0.104 1.34h-8.4zm5.514-2.217c0.027-1.16-0.488-3.067-2.602-3.067-1.959 0-2.783 1.778-2.912 3.067h5.514z" display="inline"/>
	<path d="m613.71 77.985c0-1.186 0.824-2.036 1.959-2.036 1.158 0 1.957 0.825 1.957 2.036 0 1.16-0.771 2.036-1.984 2.036-1.133 0-1.932-0.876-1.932-2.036z" display="inline"/>
	<path d="m624.28 79.738-5.617-17.371h3.453l2.371 7.912c0.67 2.191 1.262 4.201 1.701 6.314h0.051c0.465-2.062 1.107-4.175 1.779-6.289l2.525-7.938h3.375l-6.004 17.371h-3.634z" display="inline"/>
	<path d="m635.28 77.985c0-1.186 0.824-2.036 1.959-2.036 1.158 0 1.957 0.825 1.957 2.036 0 1.16-0.771 2.036-1.984 2.036-1.133 0-1.932-0.876-1.932-2.036z" display="inline"/>
</g></g>
<line x1="374.06" x2="374.06" y1="27.418" y2="88.697" display="none" fill="none" stroke="#fff" stroke-miterlimit="22.926" stroke-width=".5"/>
</svg>
