<?xml version="1.0" encoding="UTF-8"?>
<svg version="1.1" viewBox="0 0 495.34 596.39" xmlns="http://www.w3.org/2000/svg" xmlns:cc="http://creativecommons.org/ns#" xmlns:dc="http://purl.org/dc/elements/1.1/" xmlns:rdf="http://www.w3.org/1999/02/22-rdf-syntax-ns#" xmlns:xlink="http://www.w3.org/1999/xlink">
<defs>
<radialGradient id="a" cx="615.1" cy="677.2" r="247.67" gradientTransform="matrix(-.59625 1.9768 -1.5231 -.45942 1743.9 -538.14)" gradientUnits="userSpaceOnUse">
<stop stop-color="#fff" offset="0"/>
<stop stop-color="#fff" stop-opacity="0" offset="1"/>
</radialGradient>
</defs>
<g transform="translate(-108.04 -253.75)">
<path d="m140 455.22c71.905-286.3 359.52-250.34 431.43 0 71.905 250.34 0 377.14 0 377.14s-69.048 40-107.86 0c-25.035-25.803-71.591 14.286-107.86 14.286-36.266 0-23.333-48.571-107.86-14.286-84.524 34.286-107.86 0-107.86 0s-71.905-90.841 0-377.14z" fill="#ccc" opacity=".73558"/>
<path d="m140 455.22c71.905-286.3 359.52-250.34 431.43 0 71.905 250.34 0 377.14 0 377.14s-69.048 40-107.86 0c-25.035-25.803-71.591 14.286-107.86 14.286-36.266 0-23.333-48.571-107.86-14.286-84.524 34.286-107.86 0-107.86 0s-71.905-90.841 0-377.14z" fill="url(#a)" opacity=".73558"/>
<path d="m343.84 283.78c-54.698 0.90856-105.05 34.835-133.57 80.404-36.999 58.071-49.328 126.93-61.032 193.68-13.197 78.022-18.306 159.92 4.9151 236.61 3.3343 9.7205 9.2048 21.327 20.625 22.531 26.834 3.3924 51.945-9.9424 76.75-17.969 24.849-8.6611 54.195-14 78.5-1.1875 10.258 4.8041 17.228 15.321 28.312 18.219 20.1-1.624 37.599-14.253 57.281-18.406 21.802-6.4493 48.417-5.8102 65.594 10.75 8.2556 7.3149 18.757 13.585 30.219 11.5 12.96-0.18888 25.63-4.005 37.031-10.094 28.17-69.39 28.22-146.63 19.88-220.16-8.02-65.3-22.25-130.82-51.57-190.06-26.31-49.02-68.94-91.04-122.78-108.37-16.131-5.1774-33.15-7.8049-50.156-7.4375z" fill="url(#a)" opacity=".73558"/>
<path d="m347.03 283.75c-1.0628-3.3e-4 -2.1246 8e-3 -3.1875 0.0312-54.698 0.90856-105.04 34.837-133.56 80.406-36.999 58.071-49.327 126.94-61.031 193.69-13.197 78.022-18.315 159.9 4.9062 236.59 3.3343 9.7205 9.2048 21.327 20.625 22.531 11.522 1.4567 22.72-0.18929 33.719-3.1562-6.1944-4.3573-9.9345-12.351-12.344-19.375-23.23-76.69-18.12-158.57-4.92-236.59 11.704-66.743 24.032-135.62 61.031-193.69 25.405-40.589 68.124-71.928 115.81-78.938-6.9711-0.99057-14.012-1.4978-21.062-1.5zm-9 506.47c-7.1874 0.0619-14.433 0.96095-21.562 2.4062 4.651 1.2168 9.183 2.91 13.562 5.2188 10.258 4.8041 17.228 15.321 28.312 18.219 9.7957-0.79147 18.98-4.2046 28.094-7.9688-4.6051-3.7182-9.0629-7.7477-14.406-10.25-10.634-5.6056-22.236-7.7263-34-7.625zm145.41 3.625c-7.5672-0.0353-15.178 1.0347-22.375 2.875 7.4364 2.2987 14.334 6.074 20.156 11.688 8.2556 7.3149 18.757 13.585 30.219 11.5 7.639-0.11133 15.169-1.4894 22.406-3.8438-3.8347-2.103-7.3993-4.7981-10.625-7.6562-10.736-10.35-25.152-14.494-39.781-14.562z" fill="url(#a)" opacity=".73558"/>
<path d="m342.86 430.93c0 21.302-13.431 38.571-30 38.571s-30-17.269-30-38.571 13.431-38.571 30-38.571 30 17.269 30 38.571z" fill="#1a1a1a" opacity=".73558"/>
<path transform="translate(82)" d="m342.86 430.93c0 21.302-13.431 38.571-30 38.571s-30-17.269-30-38.571 13.431-38.571 30-38.571 30 17.269 30 38.571z" fill="#1a1a1a" opacity=".73558"/>
<path transform="matrix(1.8571 0 0 1.2593 -223.88 16.276)" d="m342.86 430.93c0 21.302-13.431 38.571-30 38.571s-30-17.269-30-38.571 13.431-38.571 30-38.571 30 17.269 30 38.571z" fill="#1a1a1a" opacity=".73558"/>
</g>
<metadata>
<rdf:RDF>
<cc:Work>
<dc:format>image/svg+xml</dc:format>
<dc:type rdf:resource="http://purl.org/dc/dcmitype/StillImage"/>
<cc:license rdf:resource="http://creativecommons.org/licenses/publicdomain/"/>
<dc:publisher>
<cc:Agent rdf:about="http://openclipart.org/">
<dc:title>Openclipart</dc:title>
</cc:Agent>
</dc:publisher>
<dc:title>Ghost</dc:title>
<dc:date>2011-10-20T13:00:28</dc:date>
<dc:description>Cute little Ghost for Halloween</dc:description>
<dc:source>https://openclipart.org/detail/164221/ghost-by-arcdroid</dc:source>
<dc:creator>
<cc:Agent>
<dc:title>arcdroid</dc:title>
</cc:Agent>
</dc:creator>
<dc:subject>
<rdf:Bag>
<rdf:li>white ghost halloween</rdf:li>
</rdf:Bag>
</dc:subject>
</cc:Work>
<cc:License rdf:about="http://creativecommons.org/licenses/publicdomain/">
<cc:permits rdf:resource="http://creativecommons.org/ns#Reproduction"/>
<cc:permits rdf:resource="http://creativecommons.org/ns#Distribution"/>
<cc:permits rdf:resource="http://creativecommons.org/ns#DerivativeWorks"/>
</cc:License>
</rdf:RDF>
</metadata>
</svg>
