<svg width="412.74" height="304.43" enable-background="new 0 0 532 315.333" version="1.1" viewBox="0 0 412.74 304.43" xml:space="preserve" xmlns="http://www.w3.org/2000/svg">
<g transform="translate(-6.792 -4.4464)" clip-rule="evenodd" fill="#fff" fill-rule="evenodd">
	<path d="m32.121 149.6c5.637 12.479 12.011 24.754 19.23 36.074 10.757 16.867 19.42 30.308 25.908 39.848 6.488 9.541 10.8 15.182 12.857 16.447 7.587 4.674 0.923-10.074-9.078-29.711s-23.418-44.152-29.095-59.045c-12.13-31.816-39.347-123.63 40.025-124.01 8.443-0.041 16.383 1.644 24.048 4.38 17.465 6.235 31.694 17.077 44.833 26.868 2.509 1.87 1.393-5.227 0.487-9.047-0.106-0.449-1.002-4.132-1.138-4.588-10.603-35.557-83.202-59.189-118.39-27.537-11.217 10.089-20.698 24.029-25.334 40.946-7.983 29.131 2.601 60.492 15.649 89.379z"/>
	<path d="m118.58 197.24c-13.15-20.606-26.917-41.87-35.909-63.334-13.814-32.974-10.414-75.262 41.784-56.297 17.076 6.204 19.231 17.567 18.073 5.54-0.272-2.818-2.026-6.57-6.102-10.285-5.827-5.311-11.857-10.355-26.896-13.231-20.951-4.006-37.556 6.48-44.703 20.706-15.287 30.427 1.709 50.933 5.39 58.255 3.254 8.609 47.938 70.458 48.363 58.646z"/>
	<path d="m96.411 247.68c-5.418-2.264 11.435 29.05 43.749 19.869 28.459-13.994 8.188-44.379 8.518-36.224 1.714 13.455-12.993 37.18-52.267 16.355z"/>
	
		<ellipse transform="matrix(-.0867 -.9962 .9962 -.0867 -3.0205 264.71)" cx="119.82" cy="133.74" rx="12.382" ry="15.353"/>
	<path d="m105.59 131.27c-1.637 0.021-1.39 8.628 1.739 14.266 3.564 6.423 6.171 10.72 12.249 13.876 19.28 10.012 3.017-5.776 0.055-9.059-2.301-2.907-3.525-6.13-4.26-9.494z"/>
</g>

	

<path d="m0.01 240.08s61.944 53.769 177.43 48.022c115.49-5.745 227.11-61.619 235.3-68.392 0 0-118.26 87.434-240.23 84.647-121.97-2.786-172.51-64.277-172.51-64.277z" clip-rule="evenodd" fill="#fff" fill-rule="evenodd"/>

</svg>
