<svg width="148.67" height="264.79" enable-background="new 0 0 158.667 276" version="1.1" viewBox="0 0 148.67 264.79" xml:space="preserve" xmlns="http://www.w3.org/2000/svg">
<g transform="translate(-4.377 -5.7749)" clip-rule="evenodd" fill-rule="evenodd">
	<path d="m22.788 150.93c5.637 12.479 12.011 24.754 19.23 36.074 10.757 16.867 19.42 30.308 25.908 39.848 6.488 9.541 10.8 15.182 12.857 16.447 7.587 4.674 0.923-10.074-9.078-29.711s-23.418-44.152-29.095-59.045c-12.13-31.815-39.347-123.63 40.025-124.01 8.443-0.041 16.383 1.644 24.048 4.38 17.465 6.235 31.694 17.077 44.833 26.868 2.509 1.87 1.393-5.227 0.487-9.047-0.106-0.449-1.002-4.132-1.138-4.588-10.603-35.558-83.202-59.189-118.39-27.538-11.217 10.089-20.698 24.03-25.334 40.947-7.983 29.131 2.601 60.492 15.649 89.378z" fill="#302a5f"/>
	<path d="m109.25 198.57c-13.15-20.606-26.917-41.87-35.909-63.334-13.814-32.974-10.414-75.262 41.784-56.297 17.076 6.204 19.231 17.567 18.073 5.54-0.272-2.818-2.026-6.57-6.102-10.285-5.827-5.311-11.857-10.355-26.896-13.231-20.951-4.006-37.556 6.48-44.703 20.706-15.287 30.427 1.709 50.933 5.39 58.255 3.254 8.609 47.938 70.459 48.363 58.646z" fill="#505ba4"/>
	<path d="m87.078 249.01c-5.418-2.264 11.435 29.05 43.749 19.869 28.459-13.994 8.188-44.379 8.518-36.224 1.714 13.454-12.993 37.18-52.267 16.355z" fill="#302a5f"/>
	
		<ellipse transform="matrix(-.0867 -.9962 .9962 -.0867 -14.491 256.86)" cx="110.49" cy="135.07" rx="12.382" ry="15.353" fill="#7fcdea"/>
	<path d="m96.259 132.6c-1.637 0.021-1.39 8.628 1.739 14.266 3.564 6.423 6.171 10.72 12.249 13.876 19.28 10.012 3.017-5.776 0.055-9.059-2.301-2.907-3.525-6.13-4.26-9.494z" fill="#7fcdea"/>
</g>

<linearGradient id="SVGID_1_" x1="-2.5312" x2="410.21" y1="267.85" y2="267.85" gradientTransform="translate(-4.377 -5.7749)" gradientUnits="userSpaceOnUse">
	<stop stop-color="#302A5F" offset="0"/>
	<stop stop-color="#367DBF" offset="1"/>
</linearGradient>
<path d="m-6.908 240.09s61.944 53.769 177.43 48.022c115.49-5.745 227.11-61.619 235.3-68.392 0 0-118.26 87.434-240.23 84.647-121.97-2.786-172.51-64.277-172.51-64.277z" clip-rule="evenodd" display="none" fill="url(#SVGID_1_)" fill-rule="evenodd"/>
<g transform="translate(-4.377 -5.7749)" display="none">
	<g display="inline">
		<linearGradient id="SVGID_2_" x1="163.33" x2="692.33" y1="182.93" y2="182.93" gradientUnits="userSpaceOnUse">
			<stop stop-color="#505BA4" offset="0"/>
			<stop stop-color="#302A5F" offset=".9693"/>
			<stop offset="1"/>
		</linearGradient><g fill="url(#SVGID_2_)">
		<rect x="163.33" y="98.012" width="529" height="169.84"/>
		
		<path d="m167.67 137.61v-38.648l26.391 27.609v-25.148h5.461v38.391l-26.391-27.539v25.336h-5.461z"/>
		
		<path d="m228.51 127.44h-16.359c0.141 1.875 0.75 3.367 1.828 4.477 1.078 1.094 2.461 1.641 4.148 1.641 1.312 0 2.398-0.312 3.258-0.938 0.844-0.625 1.805-1.781 2.883-3.469l4.453 2.484c-0.688 1.172-1.414 2.176-2.18 3.012s-1.586 1.523-2.461 2.062-1.82 0.934-2.836 1.184-2.117 0.375-3.305 0.375c-3.406 0-6.141-1.094-8.203-3.281-2.062-2.203-3.094-5.125-3.094-8.766 0-3.609 1-6.531 3-8.766 2.016-2.203 4.688-3.305 8.016-3.305 3.359 0 6.016 1.07 7.969 3.211 1.938 2.125 2.906 5.07 2.906 8.836zm-5.414-4.312c-0.734-2.812-2.508-4.219-5.32-4.219-0.641 0-1.242 0.098-1.805 0.293s-1.074 0.477-1.535 0.844-0.855 0.809-1.184 1.324-0.578 1.102-0.75 1.758z"/>
		
		<path d="m240.14 119.7v17.906h-5.273v-17.906h-2.25v-4.922h2.25v-8.367h5.273v8.367h4.102v4.922z"/>
		
		<path d="m255.4 132.64h13.57v4.969h-24.023l14.789-17.906h-11.648v-4.922h22.078z"/>
		
		<path d="m276.77 114.78 5.977 13.031 6.445-15.117 6.492 15.117 5.906-13.031h5.906l-11.953 24.539-6.352-14.695-6.422 14.695-11.93-24.539z"/>
		
		<path d="m331.12 127.44h-16.359c0.141 1.875 0.75 3.367 1.828 4.477 1.078 1.094 2.461 1.641 4.148 1.641 1.312 0 2.398-0.312 3.258-0.938 0.844-0.625 1.805-1.781 2.883-3.469l4.453 2.484c-0.688 1.172-1.414 2.176-2.18 3.012s-1.586 1.523-2.461 2.062-1.82 0.934-2.836 1.184-2.117 0.375-3.305 0.375c-3.406 0-6.141-1.094-8.203-3.281-2.062-2.203-3.094-5.125-3.094-8.766 0-3.609 1-6.531 3-8.766 2.016-2.203 4.688-3.305 8.016-3.305 3.359 0 6.016 1.07 7.969 3.211 1.938 2.125 2.906 5.07 2.906 8.836zm-5.414-4.312c-0.734-2.812-2.508-4.219-5.32-4.219-0.641 0-1.242 0.098-1.805 0.293s-1.074 0.477-1.535 0.844-0.855 0.809-1.184 1.324-0.578 1.102-0.75 1.758z"/>
		
		<path d="m336.89 114.78h5.273v2.039c0.969-1.016 1.828-1.711 2.578-2.086 0.766-0.391 1.672-0.586 2.719-0.586 1.391 0 2.844 0.453 4.359 1.359l-2.414 4.828c-1-0.719-1.977-1.078-2.93-1.078-2.875 0-4.312 2.172-4.312 6.516v11.836h-5.273z"/>
		
		<path d="m360.84 98.025v24.141l7.43-7.383h7.078l-9.914 9.586 10.641 13.242h-6.844l-7.547-9.633-0.844 0.844v8.789h-5.273v-39.586z"/>
		
		<path d="m173.13 173.18h15.609v-14.156h5.461v36.187h-5.461v-16.898h-15.609v16.898h-5.461v-36.187h5.461z"/>
		
		<path d="m200.79 183.63c0-3.296 1.18-6.101 3.539-8.414s5.234-3.469 8.625-3.469c3.406 0 6.297 1.164 8.672 3.492 2.344 2.328 3.516 5.188 3.516 8.578 0 3.422-1.18 6.289-3.539 8.602-2.375 2.297-5.289 3.445-8.742 3.445-3.422 0-6.289-1.172-8.602-3.516-2.313-2.312-3.469-5.218-3.469-8.718zm3.914-18.515c0-0.906 0.328-1.68 0.984-2.32 0.656-0.656 1.445-0.984 2.367-0.984s1.711 0.328 2.367 0.984c0.656 0.641 0.984 1.422 0.984 2.344 0 0.938-0.328 1.734-0.984 2.391-0.688 0.641-1.477 0.961-2.367 0.961-0.938 0-1.734-0.328-2.391-0.984-0.64-0.689-0.96-1.486-0.96-2.392zm1.476 18.609c0 2.281 0.609 4.086 1.828 5.414 1.25 1.344 2.898 2.016 4.945 2.016 2.062 0 3.711-0.664 4.945-1.992s1.852-3.102 1.852-5.32-0.617-3.992-1.852-5.32c-1.25-1.344-2.898-2.016-4.945-2.016-2.016 0-3.648 0.672-4.898 2.016s-1.875 3.077-1.875 5.202zm8.321-18.609c0-0.906 0.328-1.68 0.984-2.32 0.672-0.656 1.461-0.984 2.367-0.984 0.938 0 1.727 0.328 2.367 0.984 0.656 0.641 0.984 1.422 0.984 2.344 0 0.938-0.328 1.734-0.984 2.391-0.688 0.641-1.477 0.961-2.367 0.961-0.922 0-1.711-0.328-2.367-0.984s-0.984-1.455-0.984-2.392z"/>
		
		<path d="m230.72 172.38h5.273v2.039c0.969-1.016 1.828-1.711 2.578-2.086 0.766-0.391 1.672-0.586 2.719-0.586 1.391 0 2.844 0.453 4.359 1.359l-2.414 4.828c-1-0.719-1.977-1.078-2.93-1.078-2.875 0-4.312 2.172-4.312 6.515v11.836h-5.273z"/>
		
		<path d="m253.94 155.62v19.406c2.109-2.188 4.5-3.281 7.172-3.281 3.078 0 5.641 1.148 7.688 3.445 2.047 2.281 3.07 5.125 3.07 8.531 0 3.516-1.031 6.422-3.094 8.719-2.047 2.281-4.633 3.422-7.758 3.422-2.641 0-5-1.016-7.078-3.047v2.391h-5.273v-39.585h5.273zm12.539 28.336c0-2.188-0.594-3.968-1.781-5.343-1.203-1.406-2.711-2.109-4.523-2.109-1.938 0-3.516 0.68-4.734 2.039-1.203 1.344-1.805 3.093-1.805 5.25 0 2.219 0.594 3.992 1.781 5.32 1.188 1.359 2.75 2.039 4.688 2.039 1.828 0 3.344-0.68 4.547-2.039 1.218-1.376 1.827-3.095 1.827-5.157z"/>
		
		<path d="m298.24 185.04h-16.359c0.141 1.875 0.75 3.367 1.828 4.477 1.078 1.094 2.461 1.641 4.148 1.641 1.312 0 2.398-0.312 3.258-0.938 0.844-0.625 1.805-1.781 2.883-3.469l4.453 2.484c-0.688 1.172-1.414 2.176-2.18 3.012s-1.586 1.523-2.461 2.062-1.82 0.934-2.836 1.184-2.117 0.375-3.305 0.375c-3.406 0-6.141-1.094-8.203-3.281-2.062-2.203-3.094-5.125-3.094-8.766 0-3.609 1-6.531 3-8.765 2.016-2.203 4.688-3.305 8.016-3.305 3.359 0 6.016 1.07 7.969 3.211 1.938 2.125 2.906 5.07 2.906 8.835zm-5.414-4.312c-0.734-2.812-2.508-4.219-5.32-4.219-0.641 0-1.242 0.098-1.805 0.293s-1.074 0.477-1.535 0.844-0.855 0.809-1.184 1.324-0.578 1.102-0.75 1.758z"/>
		
		<path d="m304 155.62h5.273v18.656c1.875-1.688 3.945-2.531 6.211-2.531 2.578 0 4.641 0.836 6.188 2.508 1.312 1.453 1.969 3.773 1.969 6.96v13.992h-5.273v-13.5c0-1.828-0.324-3.152-0.973-3.972s-1.691-1.23-3.129-1.23c-1.844 0-3.141 0.57-3.891 1.711-0.734 1.156-1.102 3.14-1.102 5.953v11.039h-5.273z"/>
		
		<path d="m329.53 162.89c0-0.922 0.336-1.719 1.008-2.391s1.477-1.008 2.414-1.008c0.953 0 1.766 0.336 2.438 1.008 0.672 0.656 1.008 1.461 1.008 2.414s-0.336 1.766-1.008 2.438c-0.656 0.672-1.461 1.008-2.414 1.008s-1.766-0.336-2.438-1.008-1.008-1.492-1.008-2.461zm6.07 9.492v22.828h-5.273v-22.828z"/>
		
		<path d="m342.28 172.38h5.297v2.109c1.844-1.828 3.922-2.742 6.234-2.742 2.656 0 4.727 0.836 6.211 2.508 1.281 1.422 1.922 3.742 1.922 6.96v13.992h-5.297v-12.733c0-2.247-0.312-3.8-0.938-4.658-0.609-0.874-1.719-1.311-3.328-1.311-1.75 0-2.992 0.578-3.727 1.732-0.719 1.139-1.078 3.128-1.078 5.968v11.002h-5.297v-22.827z"/>
		
		<path d="m385.43 155.62h5.297v39.585h-5.297v-2.391c-2.078 2.031-4.43 3.047-7.055 3.047-3.125 0-5.719-1.141-7.781-3.422-2.047-2.328-3.07-5.234-3.07-8.719 0-3.406 1.023-6.25 3.07-8.531 2.031-2.297 4.586-3.445 7.664-3.445 2.672 0 5.062 1.094 7.172 3.281zm-12.515 28.102c0 2.188 0.586 3.969 1.758 5.344 1.203 1.391 2.719 2.086 4.547 2.086 1.953 0 3.531-0.672 4.734-2.016 1.203-1.391 1.805-3.156 1.805-5.297s-0.602-3.906-1.805-5.296c-1.203-1.359-2.766-2.039-4.688-2.039-1.812 0-3.328 0.688-4.547 2.062-1.203 1.39-1.804 3.109-1.804 5.156z"/>
		
		<path d="m418.17 185.04h-16.359c0.141 1.875 0.75 3.367 1.828 4.477 1.078 1.094 2.461 1.641 4.148 1.641 1.312 0 2.398-0.312 3.258-0.938 0.844-0.625 1.805-1.781 2.883-3.469l4.453 2.484c-0.688 1.172-1.414 2.176-2.18 3.012s-1.586 1.523-2.461 2.062-1.82 0.934-2.836 1.184-2.117 0.375-3.305 0.375c-3.406 0-6.141-1.094-8.203-3.281-2.062-2.203-3.094-5.125-3.094-8.766 0-3.609 1-6.531 3-8.765 2.016-2.203 4.688-3.305 8.016-3.305 3.359 0 6.016 1.07 7.969 3.211 1.938 2.125 2.906 5.07 2.906 8.835zm-5.414-4.312c-0.734-2.812-2.508-4.219-5.32-4.219-0.641 0-1.242 0.098-1.805 0.293s-1.074 0.477-1.535 0.844-0.855 0.809-1.184 1.324-0.578 1.102-0.75 1.758z"/>
		
		<path d="m423.93 172.38h5.273v2.039c0.969-1.016 1.828-1.711 2.578-2.086 0.766-0.391 1.672-0.586 2.719-0.586 1.391 0 2.844 0.453 4.359 1.359l-2.414 4.828c-1-0.719-1.977-1.078-2.93-1.078-2.875 0-4.312 2.172-4.312 6.515v11.836h-5.273z"/>
		
		<path d="m447.89 172.38v13.101c0 3.781 1.492 5.672 4.477 5.672s4.477-1.891 4.477-5.672v-13.101h5.273v13.218c0 1.828-0.227 3.406-0.68 4.734-0.438 1.188-1.195 2.258-2.273 3.211-1.781 1.547-4.047 2.32-6.797 2.32-2.734 0-4.992-0.773-6.773-2.32-1.094-0.953-1.867-2.023-2.32-3.211-0.438-1.062-0.656-2.641-0.656-4.734v-13.218z"/>
		
		<path d="m468.77 172.38h5.297v2.109c1.844-1.828 3.922-2.742 6.234-2.742 2.656 0 4.727 0.836 6.211 2.508 1.281 1.422 1.922 3.742 1.922 6.96v13.992h-5.297v-12.733c0-2.247-0.312-3.8-0.938-4.658-0.609-0.874-1.719-1.311-3.328-1.311-1.75 0-2.992 0.578-3.727 1.732-0.719 1.139-1.078 3.128-1.078 5.968v11.002h-5.297v-22.827z"/>
		
		<path d="m517.17 194.67c0 1.078-0.035 2.027-0.105 2.848s-0.168 1.543-0.293 2.168c-0.375 1.719-1.109 3.195-2.203 4.43-2.062 2.376-4.898 3.563-8.508 3.563-3.047 0-5.555-0.824-7.523-2.474-2.031-1.695-3.203-4.035-3.516-7.02h5.297c0.203 1.125 0.539 1.992 1.008 2.602 1.094 1.422 2.688 2.133 4.781 2.133 3.859 0 5.789-2.359 5.789-7.078v-3.188c-2.094 2.141-4.508 3.211-7.242 3.211-3.109 0-5.656-1.125-7.641-3.375-2-2.281-3-5.133-3-8.555 0-3.328 0.93-6.156 2.789-8.484 2-2.469 4.641-3.703 7.922-3.703 2.875 0 5.266 1.07 7.172 3.211v-2.578h5.273zm-5.062-10.817c0-2.215-0.594-3.985-1.781-5.312-1.203-1.357-2.742-2.036-4.617-2.036-2 0-3.578 0.741-4.734 2.223-1.047 1.327-1.57 3.042-1.57 5.148 0 2.076 0.523 3.775 1.57 5.102 1.141 1.451 2.719 2.176 4.734 2.176s3.609-0.732 4.781-2.199c1.078-1.326 1.617-3.025 1.617-5.102z"/>
	</g></g>
	<g display="inline">
		<path d="m167.67 137.61v-38.648l26.391 27.609v-25.148h5.461v38.391l-26.391-27.539v25.336h-5.461z"/>
		<path d="m228.51 127.44h-16.359c0.141 1.875 0.75 3.367 1.828 4.477 1.078 1.094 2.461 1.641 4.148 1.641 1.312 0 2.398-0.312 3.258-0.938 0.844-0.625 1.805-1.781 2.883-3.469l4.453 2.484c-0.688 1.172-1.414 2.176-2.18 3.012s-1.586 1.523-2.461 2.062-1.82 0.934-2.836 1.184-2.117 0.375-3.305 0.375c-3.406 0-6.141-1.094-8.203-3.281-2.062-2.203-3.094-5.125-3.094-8.766 0-3.609 1-6.531 3-8.766 2.016-2.203 4.688-3.305 8.016-3.305 3.359 0 6.016 1.07 7.969 3.211 1.938 2.125 2.906 5.07 2.906 8.836zm-5.414-4.312c-0.734-2.812-2.508-4.219-5.32-4.219-0.641 0-1.242 0.098-1.805 0.293s-1.074 0.477-1.535 0.844-0.855 0.809-1.184 1.324-0.578 1.102-0.75 1.758z"/>
		<path d="m240.14 119.7v17.906h-5.273v-17.906h-2.25v-4.922h2.25v-8.367h5.273v8.367h4.102v4.922z"/>
		<path d="m255.4 132.64h13.57v4.969h-24.023l14.789-17.906h-11.648v-4.922h22.078z"/>
		<path d="m276.77 114.78 5.977 13.031 6.445-15.117 6.492 15.117 5.906-13.031h5.906l-11.953 24.539-6.352-14.695-6.422 14.695-11.93-24.539z"/>
		<path d="m331.12 127.44h-16.359c0.141 1.875 0.75 3.367 1.828 4.477 1.078 1.094 2.461 1.641 4.148 1.641 1.312 0 2.398-0.312 3.258-0.938 0.844-0.625 1.805-1.781 2.883-3.469l4.453 2.484c-0.688 1.172-1.414 2.176-2.18 3.012s-1.586 1.523-2.461 2.062-1.82 0.934-2.836 1.184-2.117 0.375-3.305 0.375c-3.406 0-6.141-1.094-8.203-3.281-2.062-2.203-3.094-5.125-3.094-8.766 0-3.609 1-6.531 3-8.766 2.016-2.203 4.688-3.305 8.016-3.305 3.359 0 6.016 1.07 7.969 3.211 1.938 2.125 2.906 5.07 2.906 8.836zm-5.414-4.312c-0.734-2.812-2.508-4.219-5.32-4.219-0.641 0-1.242 0.098-1.805 0.293s-1.074 0.477-1.535 0.844-0.855 0.809-1.184 1.324-0.578 1.102-0.75 1.758z"/>
		<path d="m336.89 114.78h5.273v2.039c0.969-1.016 1.828-1.711 2.578-2.086 0.766-0.391 1.672-0.586 2.719-0.586 1.391 0 2.844 0.453 4.359 1.359l-2.414 4.828c-1-0.719-1.977-1.078-2.93-1.078-2.875 0-4.312 2.172-4.312 6.516v11.836h-5.273z"/>
		<path d="m360.84 98.025v24.141l7.43-7.383h7.078l-9.914 9.586 10.641 13.242h-6.844l-7.547-9.633-0.844 0.844v8.789h-5.273v-39.586z"/>
		<path d="m173.13 173.18h15.609v-14.156h5.461v36.187h-5.461v-16.898h-15.609v16.898h-5.461v-36.187h5.461z"/>
		<path d="m200.79 183.63c0-3.296 1.18-6.101 3.539-8.414s5.234-3.469 8.625-3.469c3.406 0 6.297 1.164 8.672 3.492 2.344 2.328 3.516 5.188 3.516 8.578 0 3.422-1.18 6.289-3.539 8.602-2.375 2.297-5.289 3.445-8.742 3.445-3.422 0-6.289-1.172-8.602-3.516-2.313-2.312-3.469-5.218-3.469-8.718zm3.914-18.515c0-0.906 0.328-1.68 0.984-2.32 0.656-0.656 1.445-0.984 2.367-0.984s1.711 0.328 2.367 0.984c0.656 0.641 0.984 1.422 0.984 2.344 0 0.938-0.328 1.734-0.984 2.391-0.688 0.641-1.477 0.961-2.367 0.961-0.938 0-1.734-0.328-2.391-0.984-0.64-0.689-0.96-1.486-0.96-2.392zm1.476 18.609c0 2.281 0.609 4.086 1.828 5.414 1.25 1.344 2.898 2.016 4.945 2.016 2.062 0 3.711-0.664 4.945-1.992s1.852-3.102 1.852-5.32-0.617-3.992-1.852-5.32c-1.25-1.344-2.898-2.016-4.945-2.016-2.016 0-3.648 0.672-4.898 2.016s-1.875 3.077-1.875 5.202zm8.321-18.609c0-0.906 0.328-1.68 0.984-2.32 0.672-0.656 1.461-0.984 2.367-0.984 0.938 0 1.727 0.328 2.367 0.984 0.656 0.641 0.984 1.422 0.984 2.344 0 0.938-0.328 1.734-0.984 2.391-0.688 0.641-1.477 0.961-2.367 0.961-0.922 0-1.711-0.328-2.367-0.984s-0.984-1.455-0.984-2.392z"/>
		<path d="m230.72 172.38h5.273v2.039c0.969-1.016 1.828-1.711 2.578-2.086 0.766-0.391 1.672-0.586 2.719-0.586 1.391 0 2.844 0.453 4.359 1.359l-2.414 4.828c-1-0.719-1.977-1.078-2.93-1.078-2.875 0-4.312 2.172-4.312 6.515v11.836h-5.273z"/>
		<path d="m253.94 155.62v19.406c2.109-2.188 4.5-3.281 7.172-3.281 3.078 0 5.641 1.148 7.688 3.445 2.047 2.281 3.07 5.125 3.07 8.531 0 3.516-1.031 6.422-3.094 8.719-2.047 2.281-4.633 3.422-7.758 3.422-2.641 0-5-1.016-7.078-3.047v2.391h-5.273v-39.585h5.273zm12.539 28.336c0-2.188-0.594-3.968-1.781-5.343-1.203-1.406-2.711-2.109-4.523-2.109-1.938 0-3.516 0.68-4.734 2.039-1.203 1.344-1.805 3.093-1.805 5.25 0 2.219 0.594 3.992 1.781 5.32 1.188 1.359 2.75 2.039 4.688 2.039 1.828 0 3.344-0.68 4.547-2.039 1.218-1.376 1.827-3.095 1.827-5.157z"/>
		<path d="m298.24 185.04h-16.359c0.141 1.875 0.75 3.367 1.828 4.477 1.078 1.094 2.461 1.641 4.148 1.641 1.312 0 2.398-0.312 3.258-0.938 0.844-0.625 1.805-1.781 2.883-3.469l4.453 2.484c-0.688 1.172-1.414 2.176-2.18 3.012s-1.586 1.523-2.461 2.062-1.82 0.934-2.836 1.184-2.117 0.375-3.305 0.375c-3.406 0-6.141-1.094-8.203-3.281-2.062-2.203-3.094-5.125-3.094-8.766 0-3.609 1-6.531 3-8.765 2.016-2.203 4.688-3.305 8.016-3.305 3.359 0 6.016 1.07 7.969 3.211 1.938 2.125 2.906 5.07 2.906 8.835zm-5.414-4.312c-0.734-2.812-2.508-4.219-5.32-4.219-0.641 0-1.242 0.098-1.805 0.293s-1.074 0.477-1.535 0.844-0.855 0.809-1.184 1.324-0.578 1.102-0.75 1.758z"/>
		<path d="m304 155.62h5.273v18.656c1.875-1.688 3.945-2.531 6.211-2.531 2.578 0 4.641 0.836 6.188 2.508 1.312 1.453 1.969 3.773 1.969 6.96v13.992h-5.273v-13.5c0-1.828-0.324-3.152-0.973-3.972s-1.691-1.23-3.129-1.23c-1.844 0-3.141 0.57-3.891 1.711-0.734 1.156-1.102 3.14-1.102 5.953v11.039h-5.273z"/>
		<path d="m329.53 162.89c0-0.922 0.336-1.719 1.008-2.391s1.477-1.008 2.414-1.008c0.953 0 1.766 0.336 2.438 1.008 0.672 0.656 1.008 1.461 1.008 2.414s-0.336 1.766-1.008 2.438c-0.656 0.672-1.461 1.008-2.414 1.008s-1.766-0.336-2.438-1.008-1.008-1.492-1.008-2.461zm6.07 9.492v22.828h-5.273v-22.828z"/>
		<path d="m342.28 172.38h5.297v2.109c1.844-1.828 3.922-2.742 6.234-2.742 2.656 0 4.727 0.836 6.211 2.508 1.281 1.422 1.922 3.742 1.922 6.96v13.992h-5.297v-12.733c0-2.247-0.312-3.8-0.938-4.658-0.609-0.874-1.719-1.311-3.328-1.311-1.75 0-2.992 0.578-3.727 1.732-0.719 1.139-1.078 3.128-1.078 5.968v11.002h-5.297v-22.827z"/>
		<path d="m385.43 155.62h5.297v39.585h-5.297v-2.391c-2.078 2.031-4.43 3.047-7.055 3.047-3.125 0-5.719-1.141-7.781-3.422-2.047-2.328-3.07-5.234-3.07-8.719 0-3.406 1.023-6.25 3.07-8.531 2.031-2.297 4.586-3.445 7.664-3.445 2.672 0 5.062 1.094 7.172 3.281zm-12.515 28.102c0 2.188 0.586 3.969 1.758 5.344 1.203 1.391 2.719 2.086 4.547 2.086 1.953 0 3.531-0.672 4.734-2.016 1.203-1.391 1.805-3.156 1.805-5.297s-0.602-3.906-1.805-5.296c-1.203-1.359-2.766-2.039-4.688-2.039-1.812 0-3.328 0.688-4.547 2.062-1.203 1.39-1.804 3.109-1.804 5.156z"/>
		<path d="m418.17 185.04h-16.359c0.141 1.875 0.75 3.367 1.828 4.477 1.078 1.094 2.461 1.641 4.148 1.641 1.312 0 2.398-0.312 3.258-0.938 0.844-0.625 1.805-1.781 2.883-3.469l4.453 2.484c-0.688 1.172-1.414 2.176-2.18 3.012s-1.586 1.523-2.461 2.062-1.82 0.934-2.836 1.184-2.117 0.375-3.305 0.375c-3.406 0-6.141-1.094-8.203-3.281-2.062-2.203-3.094-5.125-3.094-8.766 0-3.609 1-6.531 3-8.765 2.016-2.203 4.688-3.305 8.016-3.305 3.359 0 6.016 1.07 7.969 3.211 1.938 2.125 2.906 5.07 2.906 8.835zm-5.414-4.312c-0.734-2.812-2.508-4.219-5.32-4.219-0.641 0-1.242 0.098-1.805 0.293s-1.074 0.477-1.535 0.844-0.855 0.809-1.184 1.324-0.578 1.102-0.75 1.758z"/>
		<path d="m423.93 172.38h5.273v2.039c0.969-1.016 1.828-1.711 2.578-2.086 0.766-0.391 1.672-0.586 2.719-0.586 1.391 0 2.844 0.453 4.359 1.359l-2.414 4.828c-1-0.719-1.977-1.078-2.93-1.078-2.875 0-4.312 2.172-4.312 6.515v11.836h-5.273z"/>
		<path d="m447.89 172.38v13.101c0 3.781 1.492 5.672 4.477 5.672s4.477-1.891 4.477-5.672v-13.101h5.273v13.218c0 1.828-0.227 3.406-0.68 4.734-0.438 1.188-1.195 2.258-2.273 3.211-1.781 1.547-4.047 2.32-6.797 2.32-2.734 0-4.992-0.773-6.773-2.32-1.094-0.953-1.867-2.023-2.32-3.211-0.438-1.062-0.656-2.641-0.656-4.734v-13.218z"/>
		<path d="m468.77 172.38h5.297v2.109c1.844-1.828 3.922-2.742 6.234-2.742 2.656 0 4.727 0.836 6.211 2.508 1.281 1.422 1.922 3.742 1.922 6.96v13.992h-5.297v-12.733c0-2.247-0.312-3.8-0.938-4.658-0.609-0.874-1.719-1.311-3.328-1.311-1.75 0-2.992 0.578-3.727 1.732-0.719 1.139-1.078 3.128-1.078 5.968v11.002h-5.297v-22.827z"/>
		<path d="m517.17 194.67c0 1.078-0.035 2.027-0.105 2.848s-0.168 1.543-0.293 2.168c-0.375 1.719-1.109 3.195-2.203 4.43-2.062 2.376-4.898 3.563-8.508 3.563-3.047 0-5.555-0.824-7.523-2.474-2.031-1.695-3.203-4.035-3.516-7.02h5.297c0.203 1.125 0.539 1.992 1.008 2.602 1.094 1.422 2.688 2.133 4.781 2.133 3.859 0 5.789-2.359 5.789-7.078v-3.188c-2.094 2.141-4.508 3.211-7.242 3.211-3.109 0-5.656-1.125-7.641-3.375-2-2.281-3-5.133-3-8.555 0-3.328 0.93-6.156 2.789-8.484 2-2.469 4.641-3.703 7.922-3.703 2.875 0 5.266 1.07 7.172 3.211v-2.578h5.273zm-5.062-10.817c0-2.215-0.594-3.985-1.781-5.312-1.203-1.357-2.742-2.036-4.617-2.036-2 0-3.578 0.741-4.734 2.223-1.047 1.327-1.57 3.042-1.57 5.148 0 2.076 0.523 3.775 1.57 5.102 1.141 1.451 2.719 2.176 4.734 2.176s3.609-0.732 4.781-2.199c1.078-1.326 1.617-3.025 1.617-5.102z"/>
	</g>
</g>
</svg>
