<?xml version="1.0" encoding="UTF-8"?>
<svg version="1.1" viewBox="0 0 1932.8 790.3" xmlns="http://www.w3.org/2000/svg" xmlns:cc="http://creativecommons.org/ns#" xmlns:dc="http://purl.org/dc/elements/1.1/" xmlns:rdf="http://www.w3.org/1999/02/22-rdf-syntax-ns#">
<metadata>
<rdf:RDF>
<cc:Work rdf:about="">
<dc:format>image/svg+xml</dc:format>
<dc:type rdf:resource="http://purl.org/dc/dcmitype/StillImage"/>
<dc:title/>
</cc:Work>
</rdf:RDF>
</metadata>
<g transform="translate(644.75 2838.4)">
<g transform="translate(471.07 -3762)" stroke-opacity="0">
<path d="m-759.02 1239.6c-26.671 24.401-44.673 45.198-56.875 66 17.574 80.476 100.57 236.1 200.62 319.09 11.787 9.5968 34.1 20.841 49.469 24.938 15.635 4.1677 37.917 6.901 67.688 8.25 83.877 3.8009 103.35 4.7362 115.44 5.5312 30.029 1.9763 131.53 6.2381 190 8 125.9 3.7945 327.95 0.1924 399.09-7.125 46.146-2.8786 95.129-9.4402 139.09-15.406 160.68-38.457 211.75-38.818 359.09-105.81 53.057-24.333 65.725-33.618 77.344-56.75 1.7266-3.4373 3.1396-6.8856 4.1876-9.9687 5.0245-3.7152 8.566-10.224 9.2187-17.781 1.2074-0.6478 3.843-2.5302 6.625-4.75 8.1197-6.4788 8.2453-12.278 0.4063-18.969-85.972-45.373-156.49-137.3-224.16-176.91-10-5.8235-21.031-12.32-24.531-14.438-7.6853-4.6494-11.316-6.9925-13.031-7-1.4056-0.0061-1.53 1.6445-1.5312 4.75l-40.969-19.781c-386.02 81.322-903.11-144.39-1257.2 18.125zm1525.7 236.78c0.293 0.215 0.6033 0.3979 0.9062 0.5938-0.6789 0.4082-1.4934 0.9153-2.1562 1.3124l0.875-1.6874c0.1176-0.0726 0.2565-0.1457 0.375-0.2188z" fill="#a00"/>
<path d="m-801.57 1292.7c-0.21111-6e-4 -0.42805-0.0011-0.65625 0.0312-5.7784 1.6401-10.642 8.0647-10.531 14.094 4.4349 9.4486 12.161 17.038 17.5 26 22.047 31.638 43.713 63.47 66.781 94.344 2.9143 1.8176 2.353 6.0718 4.9375 8.4687 3.45 5.8801 8.8157 10.49 11.344 16.656 7.3982 8.6584 12.902 18.922 19.969 27.75 3.0893 6.7673 8.9901 12.028 12.656 18.656 15.346 22.108 30.664 44.244 46.312 66.094 8.853 12.53 19.161 24.389 32.781 31.969 10.132 6.7755 21.791 10.644 34 11.281 68.017 6.3656 136.41 7.5687 204.66 9.875 116.54 2.1518 233.12 1.6897 349.66 0.0312 76.698-1.7007 153.45-2.6186 230.06-6.7812 20 0.556 356.17-52.315 423.16-74.625 17.002-5.9059 33.802-12.28 50.094-19.844 19.143-8.3498 38.344-16.17 56.281-27.062 10.909-6.0081 20.814-12.972 31.656-19.062 9.5723-6.5793 19.739-12.265 29.375-18.594 6.4288-3.7671 1.727-12.679-3.6562-19.469-8.0581-10.112-11.105-13.968-21.438-21.219-4.5503-2.2869-37.201-14.028-37.201-14.028-3.1766 0.0978 19.871 15.334 22.483 17.434 7.9377 8.3575 18.864 16.079 25.5 25.344-26.022 22.115-57.385 36.544-87.969 51.187-150.78 58.297-521.37 104.73-537.38 102.28-17.607-0.8547-35.248 1.6625-52.875 1.8437-47.253 2.2157-94.499 4.4005-141.81 4.6876-110.62 1.5633-221.25 3.2316-331.88 3.1874-45.046-0.4394-90.101-2.6389-134.88-7.6562-31.554-2.6724-63.17-4.3599-94.688-7.4688-32.327-45.139-65.458-89.428-99.188-133.56-31.206-40.447-60.451-82.156-89.125-124.44-6.9595-10.425-13.878-21.471-21.625-31.062 0.11909-2.7795-1.1458-6.3343-4.3125-6.3438z" fill="#be3737"/>
<path d="m-226.76 1668.9c-10.833-0.5174-81.061-3.7279-156.06-7.1346-164.15-7.4561-174.11-8.6209-206.06-24.108-67.606-32.768-169.89-172.51-212.57-290.41-5.7015-15.751-9.9517-29.881-9.4449-31.402 0.86968-2.6091 26.457 33.207 131.96 184.72 55.165 79.219 62.493 88.061 81.596 98.458 12.613 6.8646 21.315 8.7926 51.219 11.347 151.67 12.956 677.44 11.849 789.06-1.661 86.72-10.497 310.67-49.216 368.18-63.656 49.366-12.395 101.44-34.218 149.91-62.831 15.786-9.3174 29.13-16.513 29.653-15.99 0.52285 0.5228-4.0744 9.3861-10.216 19.696-15.848 26.605-36.386 39.431-118.49 73.998-60.641 25.531-114.93 41.804-217.75 65.276-126.18 28.803-186.84 36.65-330.08 42.699-65.122 2.7498-290.42 3.4095-340.91 0.9983z" fill="#782121"/>
</g>
<path d="m172.95-2838.4c-11.484 0.1084-23.031 0.8042-34.563 1.9687-0.0982 0.0157-0.15 0.0155-0.25 0.0313-5.7779 0.9175-14.156 2.063-21.281 2.875-2.197 0.2502-4.9526 0.6486-8.0938 1.1874-0.502 0.0896-0.9981 0.1901-1.5 0.2813-2.0389 0.3706-4.0637 0.7543-6.0937 1.1563-49.851 9.866-96.812 29.062-131.56 55.156-36.09 27.1-58.894 54.147-81.844 97.188l-3.8438 7.1875c-0.84905 1.8046-1.6932 3.6167-2.5312 5.4688-1.7627 3.8952-3.0001 6.4771-5.0625 8.8124-0.01936 0.0221-0.04299 0.0405-0.0625 0.0626l-0.3125 0.625-0.78125 0.5c-0.011 0.0106-0.02021 0.0206-0.03125 0.0312-3.0564 2.9223-8.0254 5.9155-17.312 11.062l-10.812 6.9063c-54.88 35.034-92.598 65.149-131.22 104.75-43.522 44.626-62.218 71.134-97.312 138.12-3.5102 6.7003-6.7809 12.946-9.875 18.781-0.07946 0.1601-0.1704 0.3082-0.25 0.4688-0.45037 0.9083-0.88901 1.7671-1.3438 2.6874-38.797 78.54-62.107 106.43-106.5 127.31-18.652 8.7756-25.163 11.496-33.656 14.062-2.0582 0.6222-4.1393 1.3016-6.25 2-29.568 11.125-61.951 27.81-73.469 37.938-19.347 17.013-29.574 31.418-31.531 45.125-0.05819 0.5287-0.14118 1.0483-0.1875 1.5937-0.0679 0.7995-0.12042 1.5835-0.15625 2.3437-0.14868 5.4655 1.013 10.838 3.4688 16.25 3.4552 7.615 18.542 24.202 31.625 35.594 3.2508 0.4238 6.1286 1.6358 8.3125 3.4062 4.6638 0.918 22.34 7.7472 26.375 10.375 1 0.6516 7.1562 3.052 13.656 5.3126 6.5 2.2605 13.438 4.8327 15.438 5.7187s11 3.295 20 5.3437c70.829 16.126 137.13 16.139 193.62 0.0938 7.5-2.1302 15.281-4.5935 17.281-5.5 23.022-10.434 29.617-14.315 39.031-23.031l10.844-10.063c-0.58473-1.2423-0.36619-2.5344 0.59375-4.25 0.38516-0.6879 0.68933-1.4462 0.96875-2.25-0.11117-2.1268-0.20692-4.3478-0.25-6.5624-0.35034-18.011-3.8482-25.117-16.094-32.688-6.4896-4.0118-13.582-6.4581-24.969-7.4374-3.5163-0.2617-7.4369-0.4065-11.688-0.4688-15.216-0.1178-36.511 1.3155-68.438 4.2188-1.6588 0.1509-3.3115 0.3044-4.9688 0.4374-0.04257 0.0048-0.08239-0.0045-0.125 0-6.1615 0.6642-12.564 1.3667-19.438 2.1563-31.085 3.5706-79.619-2.6976-96.438-11.094-0.07382-0.0281-0.14562-0.0648-0.21875-0.0938-4.873-1.9237-8.2188-5.832-8.2188-10.375 0-5.7886 5.4228-10.554 12.531-11.469 1.8636-1.019 3.8251-1.9448 5.8125-2.6874 4.5914-1.7158 9.1562-3.7449 10.156-4.5 1-0.7552 7.9688-3.1664 15.469-5.375 7.5-2.2088 14.438-4.643 15.438-5.4063 1-0.7634 6.3125-2.8725 11.812-4.6563 13.727-4.4514 36.071-15.525 49.625-24.594 4.2468-2.8414 7.1805-4.5843 9.4375-5.5313 0.88345-0.9354 1.8727-1.7685 2.9688-2.5l-0.21875-0.0624 2.8438-2.8126c0.39727-0.5116 0.98509-1.0899 1.6875-1.7187 0.58038-0.587 1.2357-1.2277 2.0312-1.9687 0.64826-0.6039 1.2989-1.2229 1.9375-1.8438 0.03143-0.0353 0.06216-0.0582 0.09375-0.0938 1.6972-1.9046 3.5255-3.9455 5.5625-6.1562 2.3208-2.5187 4.5106-5.0029 6.5938-7.5 15.243-19.721 28.558-47.618 44.75-92.438 0.33995-0.941 0.60601-1.6791 0.9375-2.5937 1.6675-5.0488 3.4421-10.394 5.375-16.406 13.426-40.496 34.613-66.346 54.562-88.312 21.774-21.449 39.832-41.202 68.594-57.438 2.2717-1.1965 4.5625-2.7199 5.0625-3.4063 1.1009-1.5107 31.676-18.219 33.344-18.219 0.64857 0 1.1875 6.8613 1.1875 15.25v15.25l-0.125 0.0313c0.04995 0.4919 0.09375 0.9961 0.09375 1.5 0 0.0416 3.5e-4 0.0832 0 0.125 1.2379 1.6947 1.6681 7.8485 2.3125 25.062 0.43099 4.0979 0.75337 7.2226 1.1562 11.031 1.1861 11.213 3.508 20.615 7.5312 30.469 6.5676 13.854 8.125 22.427 8.125 39.469 0 12.506-0.79635 20.511-2.8125 27.719-0.19159 3.0407-0.43273 5.754-0.65625 7.8437-1.8683 17.467 1.061 26.788 11.719 35.562 1.2058 0.9499 2.5322 1.9553 4.0938 3.0938 3.8529 2.7415 9.1523 6.2428 15.406 10.219 4.2105 2.5859 8.4063 5.2062 12.062 7.5313 19.087 11.723 41.827 24.89 55.969 32.156 30.591 15.718 78.926 36.328 124.53 53.906 4.696 1.6426 12.761 4.66 19.688 7.375 2.1318 0.836 4.1189 1.6067 6.1874 2.4063 42.156 14.792 80.595 28.265 116.06 21.969 2.3374-0.4813 7.2076-2.0538 10.844-3.5 3.636-1.4464 8.1624-3.2589 10.062-4 5.531-2.1568 12.357-5.9322 26.312-14.594 15.199-9.433 21.205-13.835 28.281-20.844 5.8646-5.8081 8.7029-9.4026 10.937-13.781 0.2473-0.4845 0.485-0.8732 0.6876-1.2187-2e-3 -0.0095 0.0018-0.0216 0-0.0313 1.195-9.2129 2.4986-19.218 1.9687-28.656-0.5814-10.28-0.6683-13.938 0.4687-15.5v-0.125l0.125-0.0312c0.5348-0.6178 1.2889-0.884 2.375-1.125 2.9786-0.6607 5.9545-1.3329 8.9063-2.0312 35.158-9.864 59.624-16.722 78.125-21.781 3.8327-1.1893 6.7424-2.1603 7.75-2.625 8.4432-3.8937 43.049-11.045 58.312-12.062l16.5-1.0938v0.0313h0.0625l0.3437 1.0313 1.5938 4.1874c0.9132 2.3708 2.5879 7.6639 4.0625 12.813l1.7813 5.375c11.778 35.466 28.888 67.856 53.75 101.66 1.3874 1.666 2.7925 3.2782 4.1874 4.8438 2.2925 2.7115 9.9904 11.354 14.156 14.656 20.449 21.098 50.753 39.629 91.594 56.031 35.617 15.106 78.646 21.492 110.75 24.438 8.1929 0.2941 16.329 0.5962 26.156 0.9687 53.756 2.0378 84.71 0.6017 99.469-4.5937 30.046-10.548 39.215-33.456 39.094-51.281 0.0015-3.2752-0.0974-6.0902-0.25-8.5937-0.5679-4.5555-1.3017-8.7572-2.125-11.844-0.2091-0.5222-0.4158-1.0331-0.6562-1.5-1.5519-3.0133-2.1673-4.5701-1.9063-5.3125-0.4976-1.0235-1.065-2.0532-1.6563-3.0937-1.0259-1.2649-2.1446-2.8876-3.1562-4.6876-0.4379-0.7789-0.9044-1.582-1.4375-2.375-2.8958-3.8994-6.2535-7.6132-9.7813-10.812-2.5157-2.216-5.2311-4.309-8.0312-6.1563-5.281-3.3858-11.17-5.9772-19.688-8.1563-0.1181-0.0278-0.2246-0.0656-0.3437-0.0937-0.2938-0.0741-0.6065-0.1457-0.9063-0.2187-17.221-3.9141-45.487-6.9634-80.969-8.625-24-1.1241-46.906-2.7113-50.906-3.5626-13.483-2.8682-34.534-9.4161-37.281-11.594-1.5-1.1889-5.5396-3.7237-8.9687-5.625s-8.3353-5.1722-10.906-7.25c-7.0902-5.7304-29.708-28.665-33.344-33.812-10.698-15.149-26.781-43.035-26.781-46.438 0-2.2469 84.26 0.6259 110.06 3.75 47.354 5.7336 59.809 8.3069 99.937 20.844 25.316 7.9097 51.046 16.641 56.656 19.219 3.1511 1.4481 6.2684 2.625 6.9375 2.625s9.6898 3.4173 20.062 7.5625l16.531 6.5937c1.4843 0.1246 4.4776-0.6027 7.9062-1.8437l4.9688-2.5c5.7943-2.8952 11.054-5.4907 11.687-5.7813 2.4304-1.1137 5.5358 17.699 7.125 43.125 2.9616 47.66-0.0045 37.653 6.1876 75.594 1.9084 24.839 13.728 55.257 46.156 55.406 19.729-0.0408 41.407-8.6216 53.344-21.156 5.7183-6.0053 10.591-12.821 14-19.312 16.912-35.424 7.9233-63.024-5.1876-94.562-7.1211-16.204-18.094-37.425-29-56.312-10.407-17.593-21.385-34.078-30.562-45.125-4.7213-5.6829-4.99-8.4954-1.3438-13.312 0.3263-0.4312 0.7084-1.0697 1.125-1.8438l2.5-5.5c0.0091-0.0197 0.0221-0.0427 0.0312-0.0624 0.706-1.7365 1.391-3.5403 1.9688-5.3126 1.6633-5.1009 3.7231-10.15 4.5625-11.219 0.1623-0.2066 0.3173-0.5197 0.5-0.875 1.0718-2.9235 2.0444-5.7129 2.75-7.9687 4.8726-17.245 11.964-54.633 13.906-75.969 2.4504-19.556-1.2879-55.792-8.3126-71.312-0.3699-1.3175-0.6819-2.5762-1.0312-3.875-0.2935-0.8336-0.5775-1.6584-0.875-2.4375-5.5727-14.594-5.6313-14.924-2.6875-22.281 6.756-16.885 21.958-34.202 43.719-49.75 12.791-9.1392 42.028-24.657 56.031-29.906 0.0084-0.0045 0.0228 0.0045 0.0313 0 6.0189-3.2767 9.8903-5.7343 9.7187-6.2813-0.3704-1.1798-3.2005-2.6136-8.5-4.3437-2.0581-0.5933-4.081-1.2102-5.9063-1.7813-0.0847-0.0233-0.1956-0.0391-0.2812-0.0624-5.4721-1.5074-12.481-3.1792-21.094-5.0626-2.9466-0.644-5.8509-1.2582-8.75-1.8124-0.1466-0.0247-0.2906-0.069-0.4374-0.0938-3.0274-0.5106-6.0566-1.0358-9.0626-1.5625-0.2519-0.0402-0.4979-0.0856-0.75-0.125-41.68-6.5299-79.629-3.3804-125.91 9.9687l-5.5 1.5938-12.562 4.1562-11.5-6.4687-12.781-6.4063c-15.537-7.7465-28.182-13.625-39.5-18.125-9.7923-3.6304-19.42-6.698-28.469-9.0312-0.4732-0.1221-0.8261-0.2268-1.2813-0.3438-13.534-2.979-27.302-4.1836-44.937-4.6874-19.783-0.5654-39.01-0.0279-51.813 1.4374-7.8781 0.9022-13.7 1.6811-18.281 2.0938l-12.906 2.9062-2.7813-3.8437c-1.5271-2.1142-4.8125-7.3707-7.3125-11.656-3.233-5.5417-6.1995-10.563-8.9688-15.219-8.674-14.031-16.391-25.039-17.375-24.719-3.7059 1.2077-21.478 32.148-41.281 71.812-3.6947 7.4004-6.8326 13.571-9.625 18.938-0.0896 0.2131-0.1943 0.4473-0.2812 0.6562-1.0009 2.402-1.8288 4.5318-2.4376 6.2812-2.7918 8.0239-6.2682 13.742-10.937 18.094-16.101 15.005-49.372 30.017-76.813 34.656-9.455 1.599-14.441 1.5502-21.812-0.1874-8.8941-2.0965-30.224-11.571-32.281-14.344-0.5-0.6738-3.7856-2.9842-7.3125-5.125-4.9979-3.0339-7.0727-6.0117-9.4062-13.531-0.3482-1.1205-0.7612-2.261-1.1876-3.4376-0.0142-0.0287-0.0166-0.0647-0.0312-0.0937-0.956-1.8947-1.9511-3.9008-3.0312-6.1563-18.249-38.106-43.766-66.492-84.969-94.344-0.1012-0.0609-0.2118-0.1272-0.3125-0.1875-2.2238-1.333-4.322-2.5231-6.25-3.5-4.7107-2.3871-14.579-10.221-21.938-17.406-1.5398-1.5038-3.0918-2.9786-4.6875-4.4688-28.97-24.803-46.738-37.294-67.25-47.344-32.198-15.774-52.436-20.756-100.47-24.687-10.411-0.8523-20.993-1.2253-31.625-1.125z" fill="#c87137"/>
<path d="m1023.2-2363.2c-3.8426-0.1129-9.8914 1.5448-19.969 5.0937-33.973 11.964-38.625 12.695-95.094 14.906l-52.781 2.0625-13.562 6.5938c-7.4695 3.616-15.808 9.39-16.094 10.406 31.745 9.6927 64.188 20.814 97.5 33.938 31.395 12.459 34.436 10.757 50.625 1.0937 5.6507-3.373 17.029-12.517 25.312-20.312 22.753-21.411 34.642-41.436 29.875-50.344-1.1651-2.1768-2.8239-3.3497-5.8125-3.4375z" fill="#e9ddaf" stroke-opacity="0"/>
<path d="m156.55-2343c-5.1522 0.0158-10.062 0.0881-14.438 0.2187-30.138 0.8996-41.844 2.6981-41.844 6.4687 0 0.9171 5.9375 3.1028 13.188 4.8438 17.154 4.1194 30.393 10.607 38.406 18.812l6.4688 6.5937h-35.844c-30.238 0-39.068 0.6445-56.563 4.1876-11.403 2.3093-23.163 5.1973-26.125 6.4062l-5.375 2.1875 16.938 9.9687c9.3214 5.4819 23.519 14.875 31.562 20.875l14.625 10.906-40 0.9375-40 0.9062 17.094 8.4063c37.079 16.343 84.863 35.578 136.19 49.875 20.699 5.7659 28.504 6.2827 46.719 5.7813 13.338-0.3673 22.131-3.4823 26.375-5.4063 3.5-1.5868 9.2188-3.802 12.719-4.9063 3.5-1.1041 11.688-5.2706 18.188-9.25 6.5-3.9792 14.161-8.6536 17.031-10.406 12.983-7.9271 24.611-18.994 28.562-27.156 3.6093-7.4559 4.1275-11.112 3.8438-27.25l-0.3125-18.656 6.8125-1.7813c3.7401-0.9788 13.75-3.5243 22.25-5.6562 8.5-2.1319 28.938-7.8552 45.438-12.719 43.484-12.817 65.172-18.156 73.75-18.156 16.194 0 24.636-2.1171 26.719-6.6875 1.241-2.7236 1.3346-4.9465 0.25-6.0313-3.2684-3.2682-90.655 7.7085-146.16 18.375-15.5 2.9788-34.75 5.8608-42.75 6.4063-13.801 0.9409-15.217 0.669-28.156-5.3437-7.5-3.4854-22.954-9.3085-34.344-12.969-17.374-5.5835-24.995-6.9795-47.281-8.5938-10.958-0.7937-28.481-1.2349-43.938-1.1874z" fill="#e9ddaf" stroke-opacity="0"/>
<path d="m780.71-2347.6c-19.391-3.823-34.853-18.526-36.398-34.612-0.7756-8.0714-0.4598-8.9633 3.8727-10.937 4.1545-1.8929 5.1295-1.6401 8.1737 2.1193 1.9011 2.3477 4.4776 7.1726 5.7255 10.722 3.27 9.3001 8.3884 14.104 18.662 17.517 10.708 3.5565 20.769 2.7925 32.694-2.4827 7.6468-3.3826 8.7608-4.6447 10.621-12.034 2.4787-9.8438 5.1744-12.463 12.019-11.678 4.4809 0.5138 5.1802 1.4373 5.6801 7.5017 1.0384 12.596-11.577 28.485-26.75 33.691-6.9699 2.3913-22.702 2.4801-34.3 0.1935z" fill="#503422" stroke-opacity="0"/>
<path d="m1037.6-2383.3c-7.2174-10.621-5.9472-27.156 1.9705-25.649 2.7609 0.5253 3.5269 2.5603 3.9819 10.578 0.3099 5.4603 1.4002 10.936 2.4229 12.168 2.0471 2.4666 0.4563 9.6878-2.1342 9.6878-0.8966 0-3.7051-3.0536-6.2411-6.7857z" fill="#503422" stroke-opacity="0"/>
<path d="m1048.7-2570.2c-2.8294-5.9381-13.265-21.77-21.48-32.589-12.919-17.014-45.745-47.431-59.162-54.82-1.8395-1.0132-1.0958-1.5307 5.1136-3.5583 55.788-18.217 106.11-20.613 161.24-7.6787 17.775 4.1703 27.43 7.3815 27.628 9.1888 0.0684 0.625-10.594 6.5119-23.695 13.082-26.917 13.499-35.473 18.639-49.656 29.83-16.922 13.352-29.131 28.525-35.165 43.705l-2.8111 7.0714-2.0157-4.2305z" opacity=".2" stroke-opacity="0"/>
<g transform="translate(180.77 -2953.5)" fill="#e8b4aa" stroke-opacity="0">
<path d="m517.93 412c-2.4548-19.977-1.5348-61.737 1.6526-75.017 4.5967-19.151 7.8532-29.427 12.401-39.134l4.2798-9.1342 7.1848 13.68c15.303 29.137 24.49 40.673 48.293 60.644l16.112 13.518-11.171 1.2237c-30.994 3.3951-61.185 19.891-70.944 38.763-4.7801 9.2437-6.2166 8.4078-7.8081-4.5437z"/>
<path d="m857.33 364.38c0-0.93352-5.7897-8.7802-12.866-17.437-7.0763-8.6568-12.599-15.973-12.273-16.257 0.32632-0.28467 5.5822-3.0924 11.68-6.2394 14.718-7.5963 33.562-11.354 53.699-10.707l16.207 0.52015-10.116 7.8924c-15.879 12.388-31.551 27.476-37.457 36.061-5.0818 7.3861-8.873 10.021-8.873 6.1678z"/>
</g>
<path d="m1024.8-2116.1c-13.583-4.6934-25.604-18.464-30.576-35.565-4.3952-15.119-7.7221-66.434-7.4499-91.033 0.0497-4.4932 0.17-4.7185 1.1862-2.2223 0.622 1.5278 2.5665 8.2124 4.3212 14.855 1.7547 6.6422 3.4058 12.292 3.6692 12.556 0.9082 0.9082 7.1434-10.364 14.583-26.364 7.9995-17.204 9.329-19.263 11.791-18.259 0.8723 0.3556 5.8361 6.4049 11.031 13.443 12.973 17.577 12.608 17.312 15.674 11.374 1.3703-2.6543 4.7813-11.32 7.5802-19.256 3.5014-9.9289 5.6673-14.542 6.9435-14.787 2.4569-0.4732 8.7341 7.9488 18.464 24.773 4.2412 7.3334 8.1524 13.279 8.6915 13.212 1.1013-0.1364 2.7936-4.4897 5.5678-14.323l1.8808-6.6666 2.7233 6.1111c4.4016 9.8768 13.003 31.005 14.498 40 5.0387 30.32-8.835 64.506-32.245 79.454-17.753 11.336-43.46 17.838-58.334 12.699z" fill="#e9ddaf"/>
<path d="m757.25-2237.3c0.6084 0.7019 1.0517 1.2257 1.1876 1.3438 1.7399 1.513 16.658 7.1755 40.75 15.469 6.875 2.3665 12.5 4.6252 12.5 5.0312 0 0.4059-1.3819 1.0478-3.0626 1.4062-1.6804 0.3586-8.5589 1.8603-15.281 3.375-6.7222 1.5148-18.465 3.2728-26.125 3.9063-13.527 1.1186-21.094 2.754-21.094 4.5313 0 1.5686 16.105 19.334 23.969 26.437 5.635 5.0899 11.207 8.654 20.781 13.313 14.32 6.9675 15.568 8.6765 8.0313 11.187-5.4423 1.8131-25.306 4.1909-43.875 5.25-14.978 0.8545-18.906 1.7531-18.906 4.3126 0 2.0895 19.01 15.38 27.125 18.969 3.3905 1.4994 11.281 4.073 17.563 5.7187 13.25 3.4719 15.626 4.8438 8.375 4.8438-2.8409 0-10.978 0.7547-18.094 1.6875-2.7743 0.3637-5.6198 1.2815-8.5312 2.4687 5.776 0.6921 11.356 3.298 16.625 3.7813 8.1927 0.2941 16.329 0.5962 26.156 0.9687 53.756 2.0379 84.71 0.6017 99.469-4.5937 30.046-10.548 39.215-35.456 39.094-53.281 0.0015-3.2752-0.0974-6.0902-0.25-8.5937-0.5679-4.5555-1.3017-8.7572-2.125-11.844-0.2091-0.5222-0.4159-1.0332-0.6563-1.5-1.5517-3.0134-2.1672-4.5701-1.9062-5.3126-0.4976-1.0234-1.0649-2.0532-1.6562-3.0937-1.0261-1.265-2.1447-2.8875-3.1563-4.6875-0.4379-0.779-0.9044-1.5821-1.4375-2.375-2.8958-3.8995-6.2535-7.6133-9.7812-10.812-2.5159-2.216-5.2312-4.309-8.0313-6.1563-5.281-3.3858-11.17-5.9771-19.688-8.1562-0.1181-0.0279-0.2247-0.0657-0.3438-0.0938-0.2936-0.074-0.6064-0.1457-0.9062-0.2187-17.221-3.9141-45.487-6.9635-80.969-8.625-24-1.1241-46.906-2.7113-50.906-3.5625-1.5269-0.3248-3.1603-0.6862-4.8438-1.0938z" fill="#e9ddaf"/>
<path d="m-316.52-2152.5c-15.216-0.1178-36.511 1.3155-68.438 4.2187-1.6588 0.151-3.3115 0.3044-4.9688 0.4376-0.04257 0.0046-0.08239-0.0046-0.125 0-6.1615 0.664-12.564 1.3666-19.438 2.1562-14.412 1.6555-32.549 1.1809-49.562-0.625l-7.5625 12.031c-10.983 17.505-13.151 24.259-13.25 41.313-0.07257 12.504 0.7435 16.281 5.2188 24.656 2.9122 5.4504 7.975 12.076 11.25 14.688l4.875 3.875c3.0274 0.2552 6.0296 0.4661 9.0312 0.6563l38.031 1.0312c27.04-1.5776 55.145-5.4196 79.219-12.188 7.5-2.1302 15.281-4.5935 17.281-5.5 23.022-10.434 29.617-14.315 39.031-23.031l10.844-10.062c-0.58473-1.2423-0.36619-2.5344 0.59375-4.25 0.38516-0.6879 0.68933-1.4462 0.96875-2.25-0.11117-2.1269-0.20692-4.3479-0.25-6.5626-0.35034-18.011-3.8482-25.117-16.094-32.687-6.4896-4.0119-13.582-6.4584-24.969-7.4376-3.5163-0.2617-7.4369-0.4065-11.688-0.4687z" fill="#e9ddaf"/>
<path d="m65.161-2331c20.655-10.741 55.179-10.162 90.703-12.406 12.215-47.066 46.081-185.14-137.55-255.16 126.93 119.31 113.32 204.78 46.847 267.57z" opacity=".2"/>
<path d="m390.88-2746.4c29.458 32.035 43.46 54.124 64.865 81.381 12.684 14.416 25.669 27.775 39.94 36.637-4.7297-20.724-18.235-42.545-35.736-64.865-20.863-23.765-43.36-43.972-69.069-53.153z" opacity=".2"/>
</g>
</svg>
